<?xml version="1.0" encoding="utf-8" standalone="no"?>
<!DOCTYPE svg PUBLIC "-//W3C//DTD SVG 1.1//EN"
  "http://www.w3.org/Graphics/SVG/1.1/DTD/svg11.dtd">
<svg height="310.86825pt" version="1.1" viewBox="0 0 408.10125 310.86825" width="408.10125pt" xmlns="http://www.w3.org/2000/svg" xmlns:xlink="http://www.w3.org/1999/xlink">
 <metadata>
  <rdf:RDF xmlns:cc="http://creativecommons.org/ns#" xmlns:dc="http://purl.org/dc/elements/1.1/" xmlns:rdf="http://www.w3.org/1999/02/22-rdf-syntax-ns#">
   <cc:Work>
    <dc:type rdf:resource="http://purl.org/dc/dcmitype/StillImage"/>
    <dc:date>2021-09-17T15:00:23.865242</dc:date>
    <dc:format>image/svg+xml</dc:format>
    <dc:creator>
     <cc:Agent>
      <dc:title>Matplotlib v3.4.3, https://matplotlib.org/</dc:title>
     </cc:Agent>
    </dc:creator>
   </cc:Work>
  </rdf:RDF>
 </metadata>
 <defs>
  <style type="text/css">*{stroke-linecap:butt;stroke-linejoin:round;}</style>
 </defs>
 <g id="figure_1">
  <g id="patch_1">
   <path d="M 0 310.86825 
L 408.10125 310.86825 
L 408.10125 0 
L 0 0 
z
" style="fill:#ffffff;"/>
  </g>
  <g id="axes_1">
   <g id="patch_2">
    <path d="M 43.78125 273.312 
L 400.90125 273.312 
L 400.90125 7.2 
L 43.78125 7.2 
z
" style="fill:#ffffff;"/>
   </g>
   <g id="patch_3">
    <path clip-path="url(#p25ed3b5a83)" d="M 60.669673 273.312 
L 62.289381 273.312 
L 62.289381 271.028757 
L 60.669673 271.028757 
z
" style="fill:#1f77b4;"/>
   </g>
   <g id="patch_4">
    <path clip-path="url(#p25ed3b5a83)" d="M 62.289381 273.312 
L 63.90909 273.312 
L 63.90909 269.506595 
L 62.289381 269.506595 
z
" style="fill:#1f77b4;"/>
   </g>
   <g id="patch_5">
    <path clip-path="url(#p25ed3b5a83)" d="M 63.90909 273.312 
L 65.528798 273.312 
L 65.528798 261.134703 
L 63.90909 261.134703 
z
" style="fill:#1f77b4;"/>
   </g>
   <g id="patch_6">
    <path clip-path="url(#p25ed3b5a83)" d="M 65.528798 273.312 
L 67.148507 273.312 
L 67.148507 249.718486 
L 65.528798 249.718486 
z
" style="fill:#1f77b4;"/>
   </g>
   <g id="patch_7">
    <path clip-path="url(#p25ed3b5a83)" d="M 67.148507 273.312 
L 68.768216 273.312 
L 68.768216 255.807135 
L 67.148507 255.807135 
z
" style="fill:#1f77b4;"/>
   </g>
   <g id="patch_8">
    <path clip-path="url(#p25ed3b5a83)" d="M 68.768216 273.312 
L 70.387924 273.312 
L 70.387924 252.762811 
L 68.768216 252.762811 
z
" style="fill:#1f77b4;"/>
   </g>
   <g id="patch_9">
    <path clip-path="url(#p25ed3b5a83)" d="M 70.387924 273.312 
L 72.007633 273.312 
L 72.007633 244.390919 
L 70.387924 244.390919 
z
" style="fill:#1f77b4;"/>
   </g>
   <g id="patch_10">
    <path clip-path="url(#p25ed3b5a83)" d="M 72.007633 273.312 
L 73.627341 273.312 
L 73.627341 241.346595 
L 72.007633 241.346595 
z
" style="fill:#1f77b4;"/>
   </g>
   <g id="patch_11">
    <path clip-path="url(#p25ed3b5a83)" d="M 73.627341 273.312 
L 75.24705 273.312 
L 75.24705 235.257946 
L 73.627341 235.257946 
z
" style="fill:#1f77b4;"/>
   </g>
   <g id="patch_12">
    <path clip-path="url(#p25ed3b5a83)" d="M 75.24705 273.312 
L 76.866758 273.312 
L 76.866758 245.913081 
L 75.24705 245.913081 
z
" style="fill:#1f77b4;"/>
   </g>
   <g id="patch_13">
    <path clip-path="url(#p25ed3b5a83)" d="M 76.866758 273.312 
L 78.486467 273.312 
L 78.486467 236.019027 
L 76.866758 236.019027 
z
" style="fill:#1f77b4;"/>
   </g>
   <g id="patch_14">
    <path clip-path="url(#p25ed3b5a83)" d="M 78.486467 273.312 
L 80.106175 273.312 
L 80.106175 232.213622 
L 78.486467 232.213622 
z
" style="fill:#1f77b4;"/>
   </g>
   <g id="patch_15">
    <path clip-path="url(#p25ed3b5a83)" d="M 80.106175 273.312 
L 81.725884 273.312 
L 81.725884 220.797405 
L 80.106175 220.797405 
z
" style="fill:#1f77b4;"/>
   </g>
   <g id="patch_16">
    <path clip-path="url(#p25ed3b5a83)" d="M 81.725884 273.312 
L 83.345593 273.312 
L 83.345593 228.408216 
L 81.725884 228.408216 
z
" style="fill:#1f77b4;"/>
   </g>
   <g id="patch_17">
    <path clip-path="url(#p25ed3b5a83)" d="M 83.345593 273.312 
L 84.965301 273.312 
L 84.965301 222.319568 
L 83.345593 222.319568 
z
" style="fill:#1f77b4;"/>
   </g>
   <g id="patch_18">
    <path clip-path="url(#p25ed3b5a83)" d="M 84.965301 273.312 
L 86.58501 273.312 
L 86.58501 211.664432 
L 84.965301 211.664432 
z
" style="fill:#1f77b4;"/>
   </g>
   <g id="patch_19">
    <path clip-path="url(#p25ed3b5a83)" d="M 86.58501 273.312 
L 88.204718 273.312 
L 88.204718 215.469838 
L 86.58501 215.469838 
z
" style="fill:#1f77b4;"/>
   </g>
   <g id="patch_20">
    <path clip-path="url(#p25ed3b5a83)" d="M 88.204718 273.312 
L 89.824427 273.312 
L 89.824427 207.859027 
L 88.204718 207.859027 
z
" style="fill:#1f77b4;"/>
   </g>
   <g id="patch_21">
    <path clip-path="url(#p25ed3b5a83)" d="M 89.824427 273.312 
L 91.444135 273.312 
L 91.444135 204.053622 
L 89.824427 204.053622 
z
" style="fill:#1f77b4;"/>
   </g>
   <g id="patch_22">
    <path clip-path="url(#p25ed3b5a83)" d="M 91.444135 273.312 
L 93.063844 273.312 
L 93.063844 203.292541 
L 91.444135 203.292541 
z
" style="fill:#1f77b4;"/>
   </g>
   <g id="patch_23">
    <path clip-path="url(#p25ed3b5a83)" d="M 93.063844 273.312 
L 94.683552 273.312 
L 94.683552 205.575784 
L 93.063844 205.575784 
z
" style="fill:#1f77b4;"/>
   </g>
   <g id="patch_24">
    <path clip-path="url(#p25ed3b5a83)" d="M 94.683552 273.312 
L 96.303261 273.312 
L 96.303261 212.425514 
L 94.683552 212.425514 
z
" style="fill:#1f77b4;"/>
   </g>
   <g id="patch_25">
    <path clip-path="url(#p25ed3b5a83)" d="M 96.303261 273.312 
L 97.92297 273.312 
L 97.92297 198.726054 
L 96.303261 198.726054 
z
" style="fill:#1f77b4;"/>
   </g>
   <g id="patch_26">
    <path clip-path="url(#p25ed3b5a83)" d="M 97.92297 273.312 
L 99.542678 273.312 
L 99.542678 192.637405 
L 97.92297 192.637405 
z
" style="fill:#1f77b4;"/>
   </g>
   <g id="patch_27">
    <path clip-path="url(#p25ed3b5a83)" d="M 99.542678 273.312 
L 101.162387 273.312 
L 101.162387 184.265514 
L 99.542678 184.265514 
z
" style="fill:#1f77b4;"/>
   </g>
   <g id="patch_28">
    <path clip-path="url(#p25ed3b5a83)" d="M 101.162387 273.312 
L 102.782095 273.312 
L 102.782095 169.043892 
L 101.162387 169.043892 
z
" style="fill:#1f77b4;"/>
   </g>
   <g id="patch_29">
    <path clip-path="url(#p25ed3b5a83)" d="M 102.782095 273.312 
L 104.401804 273.312 
L 104.401804 181.221189 
L 102.782095 181.221189 
z
" style="fill:#1f77b4;"/>
   </g>
   <g id="patch_30">
    <path clip-path="url(#p25ed3b5a83)" d="M 104.401804 273.312 
L 106.021512 273.312 
L 106.021512 181.98227 
L 104.401804 181.98227 
z
" style="fill:#1f77b4;"/>
   </g>
   <g id="patch_31">
    <path clip-path="url(#p25ed3b5a83)" d="M 106.021512 273.312 
L 107.641221 273.312 
L 107.641221 175.893622 
L 106.021512 175.893622 
z
" style="fill:#1f77b4;"/>
   </g>
   <g id="patch_32">
    <path clip-path="url(#p25ed3b5a83)" d="M 107.641221 273.312 
L 109.260929 273.312 
L 109.260929 167.52173 
L 107.641221 167.52173 
z
" style="fill:#1f77b4;"/>
   </g>
   <g id="patch_33">
    <path clip-path="url(#p25ed3b5a83)" d="M 109.260929 273.312 
L 110.880638 273.312 
L 110.880638 150.016865 
L 109.260929 150.016865 
z
" style="fill:#1f77b4;"/>
   </g>
   <g id="patch_34">
    <path clip-path="url(#p25ed3b5a83)" d="M 110.880638 273.312 
L 112.500346 273.312 
L 112.500346 162.194162 
L 110.880638 162.194162 
z
" style="fill:#1f77b4;"/>
   </g>
   <g id="patch_35">
    <path clip-path="url(#p25ed3b5a83)" d="M 112.500346 273.312 
L 114.120055 273.312 
L 114.120055 171.327135 
L 112.500346 171.327135 
z
" style="fill:#1f77b4;"/>
   </g>
   <g id="patch_36">
    <path clip-path="url(#p25ed3b5a83)" d="M 114.120055 273.312 
L 115.739764 273.312 
L 115.739764 160.672 
L 114.120055 160.672 
z
" style="fill:#1f77b4;"/>
   </g>
   <g id="patch_37">
    <path clip-path="url(#p25ed3b5a83)" d="M 115.739764 273.312 
L 117.359472 273.312 
L 117.359472 139.36173 
L 115.739764 139.36173 
z
" style="fill:#1f77b4;"/>
   </g>
   <g id="patch_38">
    <path clip-path="url(#p25ed3b5a83)" d="M 117.359472 273.312 
L 118.979181 273.312 
L 118.979181 145.450378 
L 117.359472 145.450378 
z
" style="fill:#1f77b4;"/>
   </g>
   <g id="patch_39">
    <path clip-path="url(#p25ed3b5a83)" d="M 118.979181 273.312 
L 120.598889 273.312 
L 120.598889 143.167135 
L 118.979181 143.167135 
z
" style="fill:#1f77b4;"/>
   </g>
   <g id="patch_40">
    <path clip-path="url(#p25ed3b5a83)" d="M 120.598889 273.312 
L 122.218598 273.312 
L 122.218598 143.928216 
L 120.598889 143.928216 
z
" style="fill:#1f77b4;"/>
   </g>
   <g id="patch_41">
    <path clip-path="url(#p25ed3b5a83)" d="M 122.218598 273.312 
L 123.838306 273.312 
L 123.838306 152.300108 
L 122.218598 152.300108 
z
" style="fill:#1f77b4;"/>
   </g>
   <g id="patch_42">
    <path clip-path="url(#p25ed3b5a83)" d="M 123.838306 273.312 
L 125.458015 273.312 
L 125.458015 136.317405 
L 123.838306 136.317405 
z
" style="fill:#1f77b4;"/>
   </g>
   <g id="patch_43">
    <path clip-path="url(#p25ed3b5a83)" d="M 125.458015 273.312 
L 127.077723 273.312 
L 127.077723 119.573622 
L 125.458015 119.573622 
z
" style="fill:#1f77b4;"/>
   </g>
   <g id="patch_44">
    <path clip-path="url(#p25ed3b5a83)" d="M 127.077723 273.312 
L 128.697432 273.312 
L 128.697432 136.317405 
L 127.077723 136.317405 
z
" style="fill:#1f77b4;"/>
   </g>
   <g id="patch_45">
    <path clip-path="url(#p25ed3b5a83)" d="M 128.697432 273.312 
L 130.317141 273.312 
L 130.317141 125.66227 
L 128.697432 125.66227 
z
" style="fill:#1f77b4;"/>
   </g>
   <g id="patch_46">
    <path clip-path="url(#p25ed3b5a83)" d="M 130.317141 273.312 
L 131.936849 273.312 
L 131.936849 101.307676 
L 130.317141 101.307676 
z
" style="fill:#1f77b4;"/>
   </g>
   <g id="patch_47">
    <path clip-path="url(#p25ed3b5a83)" d="M 131.936849 273.312 
L 133.556558 273.312 
L 133.556558 111.20173 
L 131.936849 111.20173 
z
" style="fill:#1f77b4;"/>
   </g>
   <g id="patch_48">
    <path clip-path="url(#p25ed3b5a83)" d="M 133.556558 273.312 
L 135.176266 273.312 
L 135.176266 123.379027 
L 133.556558 123.379027 
z
" style="fill:#1f77b4;"/>
   </g>
   <g id="patch_49">
    <path clip-path="url(#p25ed3b5a83)" d="M 135.176266 273.312 
L 136.795975 273.312 
L 136.795975 121.856865 
L 135.176266 121.856865 
z
" style="fill:#1f77b4;"/>
   </g>
   <g id="patch_50">
    <path clip-path="url(#p25ed3b5a83)" d="M 136.795975 273.312 
L 138.415683 273.312 
L 138.415683 103.590919 
L 136.795975 103.590919 
z
" style="fill:#1f77b4;"/>
   </g>
   <g id="patch_51">
    <path clip-path="url(#p25ed3b5a83)" d="M 138.415683 273.312 
L 140.035392 273.312 
L 140.035392 119.573622 
L 138.415683 119.573622 
z
" style="fill:#1f77b4;"/>
   </g>
   <g id="patch_52">
    <path clip-path="url(#p25ed3b5a83)" d="M 140.035392 273.312 
L 141.6551 273.312 
L 141.6551 116.529297 
L 140.035392 116.529297 
z
" style="fill:#1f77b4;"/>
   </g>
   <g id="patch_53">
    <path clip-path="url(#p25ed3b5a83)" d="M 141.6551 273.312 
L 143.274809 273.312 
L 143.274809 95.219027 
L 141.6551 95.219027 
z
" style="fill:#1f77b4;"/>
   </g>
   <g id="patch_54">
    <path clip-path="url(#p25ed3b5a83)" d="M 143.274809 273.312 
L 144.894518 273.312 
L 144.894518 92.174703 
L 143.274809 92.174703 
z
" style="fill:#1f77b4;"/>
   </g>
   <g id="patch_55">
    <path clip-path="url(#p25ed3b5a83)" d="M 144.894518 273.312 
L 146.514226 273.312 
L 146.514226 112.723892 
L 144.894518 112.723892 
z
" style="fill:#1f77b4;"/>
   </g>
   <g id="patch_56">
    <path clip-path="url(#p25ed3b5a83)" d="M 146.514226 273.312 
L 148.133935 273.312 
L 148.133935 95.219027 
L 146.514226 95.219027 
z
" style="fill:#1f77b4;"/>
   </g>
   <g id="patch_57">
    <path clip-path="url(#p25ed3b5a83)" d="M 148.133935 273.312 
L 149.753643 273.312 
L 149.753643 79.997405 
L 148.133935 79.997405 
z
" style="fill:#1f77b4;"/>
   </g>
   <g id="patch_58">
    <path clip-path="url(#p25ed3b5a83)" d="M 149.753643 273.312 
L 151.373352 273.312 
L 151.373352 85.324973 
L 149.753643 85.324973 
z
" style="fill:#1f77b4;"/>
   </g>
   <g id="patch_59">
    <path clip-path="url(#p25ed3b5a83)" d="M 151.373352 273.312 
L 152.99306 273.312 
L 152.99306 79.997405 
L 151.373352 79.997405 
z
" style="fill:#1f77b4;"/>
   </g>
   <g id="patch_60">
    <path clip-path="url(#p25ed3b5a83)" d="M 152.99306 273.312 
L 154.612769 273.312 
L 154.612769 95.980108 
L 152.99306 95.980108 
z
" style="fill:#1f77b4;"/>
   </g>
   <g id="patch_61">
    <path clip-path="url(#p25ed3b5a83)" d="M 154.612769 273.312 
L 156.232477 273.312 
L 156.232477 99.024432 
L 154.612769 99.024432 
z
" style="fill:#1f77b4;"/>
   </g>
   <g id="patch_62">
    <path clip-path="url(#p25ed3b5a83)" d="M 156.232477 273.312 
L 157.852186 273.312 
L 157.852186 78.475243 
L 156.232477 78.475243 
z
" style="fill:#1f77b4;"/>
   </g>
   <g id="patch_63">
    <path clip-path="url(#p25ed3b5a83)" d="M 157.852186 273.312 
L 159.471894 273.312 
L 159.471894 77.714162 
L 157.852186 77.714162 
z
" style="fill:#1f77b4;"/>
   </g>
   <g id="patch_64">
    <path clip-path="url(#p25ed3b5a83)" d="M 159.471894 273.312 
L 161.091603 273.312 
L 161.091603 55.642811 
L 159.471894 55.642811 
z
" style="fill:#1f77b4;"/>
   </g>
   <g id="patch_65">
    <path clip-path="url(#p25ed3b5a83)" d="M 161.091603 273.312 
L 162.711312 273.312 
L 162.711312 66.297946 
L 161.091603 66.297946 
z
" style="fill:#1f77b4;"/>
   </g>
   <g id="patch_66">
    <path clip-path="url(#p25ed3b5a83)" d="M 162.711312 273.312 
L 164.33102 273.312 
L 164.33102 39.660108 
L 162.711312 39.660108 
z
" style="fill:#1f77b4;"/>
   </g>
   <g id="patch_67">
    <path clip-path="url(#p25ed3b5a83)" d="M 164.33102 273.312 
L 165.950729 273.312 
L 165.950729 68.581189 
L 164.33102 68.581189 
z
" style="fill:#1f77b4;"/>
   </g>
   <g id="patch_68">
    <path clip-path="url(#p25ed3b5a83)" d="M 165.950729 273.312 
L 167.570437 273.312 
L 167.570437 48.032 
L 165.950729 48.032 
z
" style="fill:#1f77b4;"/>
   </g>
   <g id="patch_69">
    <path clip-path="url(#p25ed3b5a83)" d="M 167.570437 273.312 
L 169.190146 273.312 
L 169.190146 53.359568 
L 167.570437 53.359568 
z
" style="fill:#1f77b4;"/>
   </g>
   <g id="patch_70">
    <path clip-path="url(#p25ed3b5a83)" d="M 169.190146 273.312 
L 170.809854 273.312 
L 170.809854 67.059027 
L 169.190146 67.059027 
z
" style="fill:#1f77b4;"/>
   </g>
   <g id="patch_71">
    <path clip-path="url(#p25ed3b5a83)" d="M 170.809854 273.312 
L 172.429563 273.312 
L 172.429563 62.492541 
L 170.809854 62.492541 
z
" style="fill:#1f77b4;"/>
   </g>
   <g id="patch_72">
    <path clip-path="url(#p25ed3b5a83)" d="M 172.429563 273.312 
L 174.049271 273.312 
L 174.049271 89.891459 
L 172.429563 89.891459 
z
" style="fill:#1f77b4;"/>
   </g>
   <g id="patch_73">
    <path clip-path="url(#p25ed3b5a83)" d="M 174.049271 273.312 
L 175.66898 273.312 
L 175.66898 48.793081 
L 174.049271 48.793081 
z
" style="fill:#1f77b4;"/>
   </g>
   <g id="patch_74">
    <path clip-path="url(#p25ed3b5a83)" d="M 175.66898 273.312 
L 177.288689 273.312 
L 177.288689 67.059027 
L 175.66898 67.059027 
z
" style="fill:#1f77b4;"/>
   </g>
   <g id="patch_75">
    <path clip-path="url(#p25ed3b5a83)" d="M 177.288689 273.312 
L 178.908397 273.312 
L 178.908397 55.642811 
L 177.288689 55.642811 
z
" style="fill:#1f77b4;"/>
   </g>
   <g id="patch_76">
    <path clip-path="url(#p25ed3b5a83)" d="M 178.908397 273.312 
L 180.528106 273.312 
L 180.528106 60.209297 
L 178.908397 60.209297 
z
" style="fill:#1f77b4;"/>
   </g>
   <g id="patch_77">
    <path clip-path="url(#p25ed3b5a83)" d="M 180.528106 273.312 
L 182.147814 273.312 
L 182.147814 39.660108 
L 180.528106 39.660108 
z
" style="fill:#1f77b4;"/>
   </g>
   <g id="patch_78">
    <path clip-path="url(#p25ed3b5a83)" d="M 182.147814 273.312 
L 183.767523 273.312 
L 183.767523 59.448216 
L 182.147814 59.448216 
z
" style="fill:#1f77b4;"/>
   </g>
   <g id="patch_79">
    <path clip-path="url(#p25ed3b5a83)" d="M 183.767523 273.312 
L 185.387231 273.312 
L 185.387231 35.854703 
L 183.767523 35.854703 
z
" style="fill:#1f77b4;"/>
   </g>
   <g id="patch_80">
    <path clip-path="url(#p25ed3b5a83)" d="M 185.387231 273.312 
L 187.00694 273.312 
L 187.00694 58.687135 
L 185.387231 58.687135 
z
" style="fill:#1f77b4;"/>
   </g>
   <g id="patch_81">
    <path clip-path="url(#p25ed3b5a83)" d="M 187.00694 273.312 
L 188.626648 273.312 
L 188.626648 43.465514 
L 187.00694 43.465514 
z
" style="fill:#1f77b4;"/>
   </g>
   <g id="patch_82">
    <path clip-path="url(#p25ed3b5a83)" d="M 188.626648 273.312 
L 190.246357 273.312 
L 190.246357 66.297946 
L 188.626648 66.297946 
z
" style="fill:#1f77b4;"/>
   </g>
   <g id="patch_83">
    <path clip-path="url(#p25ed3b5a83)" d="M 190.246357 273.312 
L 191.866065 273.312 
L 191.866065 48.032 
L 190.246357 48.032 
z
" style="fill:#1f77b4;"/>
   </g>
   <g id="patch_84">
    <path clip-path="url(#p25ed3b5a83)" d="M 191.866065 273.312 
L 193.485774 273.312 
L 193.485774 50.315243 
L 191.866065 50.315243 
z
" style="fill:#1f77b4;"/>
   </g>
   <g id="patch_85">
    <path clip-path="url(#p25ed3b5a83)" d="M 193.485774 273.312 
L 195.105483 273.312 
L 195.105483 51.837405 
L 193.485774 51.837405 
z
" style="fill:#1f77b4;"/>
   </g>
   <g id="patch_86">
    <path clip-path="url(#p25ed3b5a83)" d="M 195.105483 273.312 
L 196.725191 273.312 
L 196.725191 57.926054 
L 195.105483 57.926054 
z
" style="fill:#1f77b4;"/>
   </g>
   <g id="patch_87">
    <path clip-path="url(#p25ed3b5a83)" d="M 196.725191 273.312 
L 198.3449 273.312 
L 198.3449 25.960649 
L 196.725191 25.960649 
z
" style="fill:#1f77b4;"/>
   </g>
   <g id="patch_88">
    <path clip-path="url(#p25ed3b5a83)" d="M 198.3449 273.312 
L 199.964608 273.312 
L 199.964608 62.492541 
L 198.3449 62.492541 
z
" style="fill:#1f77b4;"/>
   </g>
   <g id="patch_89">
    <path clip-path="url(#p25ed3b5a83)" d="M 199.964608 273.312 
L 201.584317 273.312 
L 201.584317 53.359568 
L 199.964608 53.359568 
z
" style="fill:#1f77b4;"/>
   </g>
   <g id="patch_90">
    <path clip-path="url(#p25ed3b5a83)" d="M 201.584317 273.312 
L 203.204025 273.312 
L 203.204025 50.315243 
L 201.584317 50.315243 
z
" style="fill:#1f77b4;"/>
   </g>
   <g id="patch_91">
    <path clip-path="url(#p25ed3b5a83)" d="M 203.204025 273.312 
L 204.823734 273.312 
L 204.823734 33.571459 
L 203.204025 33.571459 
z
" style="fill:#1f77b4;"/>
   </g>
   <g id="patch_92">
    <path clip-path="url(#p25ed3b5a83)" d="M 204.823734 273.312 
L 206.443442 273.312 
L 206.443442 31.288216 
L 204.823734 31.288216 
z
" style="fill:#1f77b4;"/>
   </g>
   <g id="patch_93">
    <path clip-path="url(#p25ed3b5a83)" d="M 206.443442 273.312 
L 208.063151 273.312 
L 208.063151 33.571459 
L 206.443442 33.571459 
z
" style="fill:#1f77b4;"/>
   </g>
   <g id="patch_94">
    <path clip-path="url(#p25ed3b5a83)" d="M 208.063151 273.312 
L 209.68286 273.312 
L 209.68286 27.482811 
L 208.063151 27.482811 
z
" style="fill:#1f77b4;"/>
   </g>
   <g id="patch_95">
    <path clip-path="url(#p25ed3b5a83)" d="M 209.68286 273.312 
L 211.302568 273.312 
L 211.302568 35.093622 
L 209.68286 35.093622 
z
" style="fill:#1f77b4;"/>
   </g>
   <g id="patch_96">
    <path clip-path="url(#p25ed3b5a83)" d="M 211.302568 273.312 
L 212.922277 273.312 
L 212.922277 54.120649 
L 211.302568 54.120649 
z
" style="fill:#1f77b4;"/>
   </g>
   <g id="patch_97">
    <path clip-path="url(#p25ed3b5a83)" d="M 212.922277 273.312 
L 214.541985 273.312 
L 214.541985 53.359568 
L 212.922277 53.359568 
z
" style="fill:#1f77b4;"/>
   </g>
   <g id="patch_98">
    <path clip-path="url(#p25ed3b5a83)" d="M 214.541985 273.312 
L 216.161694 273.312 
L 216.161694 26.72173 
L 214.541985 26.72173 
z
" style="fill:#1f77b4;"/>
   </g>
   <g id="patch_99">
    <path clip-path="url(#p25ed3b5a83)" d="M 216.161694 273.312 
L 217.781402 273.312 
L 217.781402 29.004973 
L 216.161694 29.004973 
z
" style="fill:#1f77b4;"/>
   </g>
   <g id="patch_100">
    <path clip-path="url(#p25ed3b5a83)" d="M 217.781402 273.312 
L 219.401111 273.312 
L 219.401111 36.615784 
L 217.781402 36.615784 
z
" style="fill:#1f77b4;"/>
   </g>
   <g id="patch_101">
    <path clip-path="url(#p25ed3b5a83)" d="M 219.401111 273.312 
L 221.020819 273.312 
L 221.020819 30.527135 
L 219.401111 30.527135 
z
" style="fill:#1f77b4;"/>
   </g>
   <g id="patch_102">
    <path clip-path="url(#p25ed3b5a83)" d="M 221.020819 273.312 
L 222.640528 273.312 
L 222.640528 36.615784 
L 221.020819 36.615784 
z
" style="fill:#1f77b4;"/>
   </g>
   <g id="patch_103">
    <path clip-path="url(#p25ed3b5a83)" d="M 222.640528 273.312 
L 224.260237 273.312 
L 224.260237 41.18227 
L 222.640528 41.18227 
z
" style="fill:#1f77b4;"/>
   </g>
   <g id="patch_104">
    <path clip-path="url(#p25ed3b5a83)" d="M 224.260237 273.312 
L 225.879945 273.312 
L 225.879945 59.448216 
L 224.260237 59.448216 
z
" style="fill:#1f77b4;"/>
   </g>
   <g id="patch_105">
    <path clip-path="url(#p25ed3b5a83)" d="M 225.879945 273.312 
L 227.499654 273.312 
L 227.499654 24.438486 
L 225.879945 24.438486 
z
" style="fill:#1f77b4;"/>
   </g>
   <g id="patch_106">
    <path clip-path="url(#p25ed3b5a83)" d="M 227.499654 273.312 
L 229.119362 273.312 
L 229.119362 31.288216 
L 227.499654 31.288216 
z
" style="fill:#1f77b4;"/>
   </g>
   <g id="patch_107">
    <path clip-path="url(#p25ed3b5a83)" d="M 229.119362 273.312 
L 230.739071 273.312 
L 230.739071 37.376865 
L 229.119362 37.376865 
z
" style="fill:#1f77b4;"/>
   </g>
   <g id="patch_108">
    <path clip-path="url(#p25ed3b5a83)" d="M 230.739071 273.312 
L 232.358779 273.312 
L 232.358779 34.332541 
L 230.739071 34.332541 
z
" style="fill:#1f77b4;"/>
   </g>
   <g id="patch_109">
    <path clip-path="url(#p25ed3b5a83)" d="M 232.358779 273.312 
L 233.978488 273.312 
L 233.978488 28.243892 
L 232.358779 28.243892 
z
" style="fill:#1f77b4;"/>
   </g>
   <g id="patch_110">
    <path clip-path="url(#p25ed3b5a83)" d="M 233.978488 273.312 
L 235.598196 273.312 
L 235.598196 40.421189 
L 233.978488 40.421189 
z
" style="fill:#1f77b4;"/>
   </g>
   <g id="patch_111">
    <path clip-path="url(#p25ed3b5a83)" d="M 235.598196 273.312 
L 237.217905 273.312 
L 237.217905 25.199568 
L 235.598196 25.199568 
z
" style="fill:#1f77b4;"/>
   </g>
   <g id="patch_112">
    <path clip-path="url(#p25ed3b5a83)" d="M 237.217905 273.312 
L 238.837613 273.312 
L 238.837613 32.810378 
L 237.217905 32.810378 
z
" style="fill:#1f77b4;"/>
   </g>
   <g id="patch_113">
    <path clip-path="url(#p25ed3b5a83)" d="M 238.837613 273.312 
L 240.457322 273.312 
L 240.457322 19.872 
L 238.837613 19.872 
z
" style="fill:#1f77b4;"/>
   </g>
   <g id="patch_114">
    <path clip-path="url(#p25ed3b5a83)" d="M 240.457322 273.312 
L 242.077031 273.312 
L 242.077031 37.376865 
L 240.457322 37.376865 
z
" style="fill:#1f77b4;"/>
   </g>
   <g id="patch_115">
    <path clip-path="url(#p25ed3b5a83)" d="M 242.077031 273.312 
L 243.696739 273.312 
L 243.696739 48.793081 
L 242.077031 48.793081 
z
" style="fill:#1f77b4;"/>
   </g>
   <g id="patch_116">
    <path clip-path="url(#p25ed3b5a83)" d="M 243.696739 273.312 
L 245.316448 273.312 
L 245.316448 48.032 
L 243.696739 48.032 
z
" style="fill:#1f77b4;"/>
   </g>
   <g id="patch_117">
    <path clip-path="url(#p25ed3b5a83)" d="M 245.316448 273.312 
L 246.936156 273.312 
L 246.936156 22.155243 
L 245.316448 22.155243 
z
" style="fill:#1f77b4;"/>
   </g>
   <g id="patch_118">
    <path clip-path="url(#p25ed3b5a83)" d="M 246.936156 273.312 
L 248.555865 273.312 
L 248.555865 42.704432 
L 246.936156 42.704432 
z
" style="fill:#1f77b4;"/>
   </g>
   <g id="patch_119">
    <path clip-path="url(#p25ed3b5a83)" d="M 248.555865 273.312 
L 250.175573 273.312 
L 250.175573 60.970378 
L 248.555865 60.970378 
z
" style="fill:#1f77b4;"/>
   </g>
   <g id="patch_120">
    <path clip-path="url(#p25ed3b5a83)" d="M 250.175573 273.312 
L 251.795282 273.312 
L 251.795282 51.837405 
L 250.175573 51.837405 
z
" style="fill:#1f77b4;"/>
   </g>
   <g id="patch_121">
    <path clip-path="url(#p25ed3b5a83)" d="M 251.795282 273.312 
L 253.41499 273.312 
L 253.41499 29.004973 
L 251.795282 29.004973 
z
" style="fill:#1f77b4;"/>
   </g>
   <g id="patch_122">
    <path clip-path="url(#p25ed3b5a83)" d="M 253.41499 273.312 
L 255.034699 273.312 
L 255.034699 44.987676 
L 253.41499 44.987676 
z
" style="fill:#1f77b4;"/>
   </g>
   <g id="patch_123">
    <path clip-path="url(#p25ed3b5a83)" d="M 255.034699 273.312 
L 256.654408 273.312 
L 256.654408 55.642811 
L 255.034699 55.642811 
z
" style="fill:#1f77b4;"/>
   </g>
   <g id="patch_124">
    <path clip-path="url(#p25ed3b5a83)" d="M 256.654408 273.312 
L 258.274116 273.312 
L 258.274116 57.164973 
L 256.654408 57.164973 
z
" style="fill:#1f77b4;"/>
   </g>
   <g id="patch_125">
    <path clip-path="url(#p25ed3b5a83)" d="M 258.274116 273.312 
L 259.893825 273.312 
L 259.893825 51.076324 
L 258.274116 51.076324 
z
" style="fill:#1f77b4;"/>
   </g>
   <g id="patch_126">
    <path clip-path="url(#p25ed3b5a83)" d="M 259.893825 273.312 
L 261.513533 273.312 
L 261.513533 57.164973 
L 259.893825 57.164973 
z
" style="fill:#1f77b4;"/>
   </g>
   <g id="patch_127">
    <path clip-path="url(#p25ed3b5a83)" d="M 261.513533 273.312 
L 263.133242 273.312 
L 263.133242 44.987676 
L 261.513533 44.987676 
z
" style="fill:#1f77b4;"/>
   </g>
   <g id="patch_128">
    <path clip-path="url(#p25ed3b5a83)" d="M 263.133242 273.312 
L 264.75295 273.312 
L 264.75295 24.438486 
L 263.133242 24.438486 
z
" style="fill:#1f77b4;"/>
   </g>
   <g id="patch_129">
    <path clip-path="url(#p25ed3b5a83)" d="M 264.75295 273.312 
L 266.372659 273.312 
L 266.372659 67.820108 
L 264.75295 67.820108 
z
" style="fill:#1f77b4;"/>
   </g>
   <g id="patch_130">
    <path clip-path="url(#p25ed3b5a83)" d="M 266.372659 273.312 
L 267.992367 273.312 
L 267.992367 39.660108 
L 266.372659 39.660108 
z
" style="fill:#1f77b4;"/>
   </g>
   <g id="patch_131">
    <path clip-path="url(#p25ed3b5a83)" d="M 267.992367 273.312 
L 269.612076 273.312 
L 269.612076 54.120649 
L 267.992367 54.120649 
z
" style="fill:#1f77b4;"/>
   </g>
   <g id="patch_132">
    <path clip-path="url(#p25ed3b5a83)" d="M 269.612076 273.312 
L 271.231785 273.312 
L 271.231785 66.297946 
L 269.612076 66.297946 
z
" style="fill:#1f77b4;"/>
   </g>
   <g id="patch_133">
    <path clip-path="url(#p25ed3b5a83)" d="M 271.231785 273.312 
L 272.851493 273.312 
L 272.851493 59.448216 
L 271.231785 59.448216 
z
" style="fill:#1f77b4;"/>
   </g>
   <g id="patch_134">
    <path clip-path="url(#p25ed3b5a83)" d="M 272.851493 273.312 
L 274.471202 273.312 
L 274.471202 57.164973 
L 272.851493 57.164973 
z
" style="fill:#1f77b4;"/>
   </g>
   <g id="patch_135">
    <path clip-path="url(#p25ed3b5a83)" d="M 274.471202 273.312 
L 276.09091 273.312 
L 276.09091 56.403892 
L 274.471202 56.403892 
z
" style="fill:#1f77b4;"/>
   </g>
   <g id="patch_136">
    <path clip-path="url(#p25ed3b5a83)" d="M 276.09091 273.312 
L 277.710619 273.312 
L 277.710619 59.448216 
L 276.09091 59.448216 
z
" style="fill:#1f77b4;"/>
   </g>
   <g id="patch_137">
    <path clip-path="url(#p25ed3b5a83)" d="M 277.710619 273.312 
L 279.330327 273.312 
L 279.330327 80.758486 
L 277.710619 80.758486 
z
" style="fill:#1f77b4;"/>
   </g>
   <g id="patch_138">
    <path clip-path="url(#p25ed3b5a83)" d="M 279.330327 273.312 
L 280.950036 273.312 
L 280.950036 61.731459 
L 279.330327 61.731459 
z
" style="fill:#1f77b4;"/>
   </g>
   <g id="patch_139">
    <path clip-path="url(#p25ed3b5a83)" d="M 280.950036 273.312 
L 282.569744 273.312 
L 282.569744 63.253622 
L 280.950036 63.253622 
z
" style="fill:#1f77b4;"/>
   </g>
   <g id="patch_140">
    <path clip-path="url(#p25ed3b5a83)" d="M 282.569744 273.312 
L 284.189453 273.312 
L 284.189453 86.847135 
L 282.569744 86.847135 
z
" style="fill:#1f77b4;"/>
   </g>
   <g id="patch_141">
    <path clip-path="url(#p25ed3b5a83)" d="M 284.189453 273.312 
L 285.809161 273.312 
L 285.809161 80.758486 
L 284.189453 80.758486 
z
" style="fill:#1f77b4;"/>
   </g>
   <g id="patch_142">
    <path clip-path="url(#p25ed3b5a83)" d="M 285.809161 273.312 
L 287.42887 273.312 
L 287.42887 83.04173 
L 285.809161 83.04173 
z
" style="fill:#1f77b4;"/>
   </g>
   <g id="patch_143">
    <path clip-path="url(#p25ed3b5a83)" d="M 287.42887 273.312 
L 289.048579 273.312 
L 289.048579 69.34227 
L 287.42887 69.34227 
z
" style="fill:#1f77b4;"/>
   </g>
   <g id="patch_144">
    <path clip-path="url(#p25ed3b5a83)" d="M 289.048579 273.312 
L 290.668287 273.312 
L 290.668287 88.369297 
L 289.048579 88.369297 
z
" style="fill:#1f77b4;"/>
   </g>
   <g id="patch_145">
    <path clip-path="url(#p25ed3b5a83)" d="M 290.668287 273.312 
L 292.287996 273.312 
L 292.287996 77.714162 
L 290.668287 77.714162 
z
" style="fill:#1f77b4;"/>
   </g>
   <g id="patch_146">
    <path clip-path="url(#p25ed3b5a83)" d="M 292.287996 273.312 
L 293.907704 273.312 
L 293.907704 78.475243 
L 292.287996 78.475243 
z
" style="fill:#1f77b4;"/>
   </g>
   <g id="patch_147">
    <path clip-path="url(#p25ed3b5a83)" d="M 293.907704 273.312 
L 295.527413 273.312 
L 295.527413 73.147676 
L 293.907704 73.147676 
z
" style="fill:#1f77b4;"/>
   </g>
   <g id="patch_148">
    <path clip-path="url(#p25ed3b5a83)" d="M 295.527413 273.312 
L 297.147121 273.312 
L 297.147121 73.147676 
L 295.527413 73.147676 
z
" style="fill:#1f77b4;"/>
   </g>
   <g id="patch_149">
    <path clip-path="url(#p25ed3b5a83)" d="M 297.147121 273.312 
L 298.76683 273.312 
L 298.76683 92.174703 
L 297.147121 92.174703 
z
" style="fill:#1f77b4;"/>
   </g>
   <g id="patch_150">
    <path clip-path="url(#p25ed3b5a83)" d="M 298.76683 273.312 
L 300.386538 273.312 
L 300.386538 107.396324 
L 298.76683 107.396324 
z
" style="fill:#1f77b4;"/>
   </g>
   <g id="patch_151">
    <path clip-path="url(#p25ed3b5a83)" d="M 300.386538 273.312 
L 302.006247 273.312 
L 302.006247 89.891459 
L 300.386538 89.891459 
z
" style="fill:#1f77b4;"/>
   </g>
   <g id="patch_152">
    <path clip-path="url(#p25ed3b5a83)" d="M 302.006247 273.312 
L 303.625956 273.312 
L 303.625956 102.068757 
L 302.006247 102.068757 
z
" style="fill:#1f77b4;"/>
   </g>
   <g id="patch_153">
    <path clip-path="url(#p25ed3b5a83)" d="M 303.625956 273.312 
L 305.245664 273.312 
L 305.245664 110.440649 
L 303.625956 110.440649 
z
" style="fill:#1f77b4;"/>
   </g>
   <g id="patch_154">
    <path clip-path="url(#p25ed3b5a83)" d="M 305.245664 273.312 
L 306.865373 273.312 
L 306.865373 111.20173 
L 305.245664 111.20173 
z
" style="fill:#1f77b4;"/>
   </g>
   <g id="patch_155">
    <path clip-path="url(#p25ed3b5a83)" d="M 306.865373 273.312 
L 308.485081 273.312 
L 308.485081 104.352 
L 306.865373 104.352 
z
" style="fill:#1f77b4;"/>
   </g>
   <g id="patch_156">
    <path clip-path="url(#p25ed3b5a83)" d="M 308.485081 273.312 
L 310.10479 273.312 
L 310.10479 125.66227 
L 308.485081 125.66227 
z
" style="fill:#1f77b4;"/>
   </g>
   <g id="patch_157">
    <path clip-path="url(#p25ed3b5a83)" d="M 310.10479 273.312 
L 311.724498 273.312 
L 311.724498 119.573622 
L 310.10479 119.573622 
z
" style="fill:#1f77b4;"/>
   </g>
   <g id="patch_158">
    <path clip-path="url(#p25ed3b5a83)" d="M 311.724498 273.312 
L 313.344207 273.312 
L 313.344207 114.246054 
L 311.724498 114.246054 
z
" style="fill:#1f77b4;"/>
   </g>
   <g id="patch_159">
    <path clip-path="url(#p25ed3b5a83)" d="M 313.344207 273.312 
L 314.963915 273.312 
L 314.963915 113.484973 
L 313.344207 113.484973 
z
" style="fill:#1f77b4;"/>
   </g>
   <g id="patch_160">
    <path clip-path="url(#p25ed3b5a83)" d="M 314.963915 273.312 
L 316.583624 273.312 
L 316.583624 126.423351 
L 314.963915 126.423351 
z
" style="fill:#1f77b4;"/>
   </g>
   <g id="patch_161">
    <path clip-path="url(#p25ed3b5a83)" d="M 316.583624 273.312 
L 318.203333 273.312 
L 318.203333 127.945514 
L 316.583624 127.945514 
z
" style="fill:#1f77b4;"/>
   </g>
   <g id="patch_162">
    <path clip-path="url(#p25ed3b5a83)" d="M 318.203333 273.312 
L 319.823041 273.312 
L 319.823041 129.467676 
L 318.203333 129.467676 
z
" style="fill:#1f77b4;"/>
   </g>
   <g id="patch_163">
    <path clip-path="url(#p25ed3b5a83)" d="M 319.823041 273.312 
L 321.44275 273.312 
L 321.44275 135.556324 
L 319.823041 135.556324 
z
" style="fill:#1f77b4;"/>
   </g>
   <g id="patch_164">
    <path clip-path="url(#p25ed3b5a83)" d="M 321.44275 273.312 
L 323.062458 273.312 
L 323.062458 162.955243 
L 321.44275 162.955243 
z
" style="fill:#1f77b4;"/>
   </g>
   <g id="patch_165">
    <path clip-path="url(#p25ed3b5a83)" d="M 323.062458 273.312 
L 324.682167 273.312 
L 324.682167 146.211459 
L 323.062458 146.211459 
z
" style="fill:#1f77b4;"/>
   </g>
   <g id="patch_166">
    <path clip-path="url(#p25ed3b5a83)" d="M 324.682167 273.312 
L 326.301875 273.312 
L 326.301875 146.211459 
L 324.682167 146.211459 
z
" style="fill:#1f77b4;"/>
   </g>
   <g id="patch_167">
    <path clip-path="url(#p25ed3b5a83)" d="M 326.301875 273.312 
L 327.921584 273.312 
L 327.921584 153.82227 
L 326.301875 153.82227 
z
" style="fill:#1f77b4;"/>
   </g>
   <g id="patch_168">
    <path clip-path="url(#p25ed3b5a83)" d="M 327.921584 273.312 
L 329.541292 273.312 
L 329.541292 159.910919 
L 327.921584 159.910919 
z
" style="fill:#1f77b4;"/>
   </g>
   <g id="patch_169">
    <path clip-path="url(#p25ed3b5a83)" d="M 329.541292 273.312 
L 331.161001 273.312 
L 331.161001 150.777946 
L 329.541292 150.777946 
z
" style="fill:#1f77b4;"/>
   </g>
   <g id="patch_170">
    <path clip-path="url(#p25ed3b5a83)" d="M 331.161001 273.312 
L 332.780709 273.312 
L 332.780709 155.344432 
L 331.161001 155.344432 
z
" style="fill:#1f77b4;"/>
   </g>
   <g id="patch_171">
    <path clip-path="url(#p25ed3b5a83)" d="M 332.780709 273.312 
L 334.400418 273.312 
L 334.400418 150.777946 
L 332.780709 150.777946 
z
" style="fill:#1f77b4;"/>
   </g>
   <g id="patch_172">
    <path clip-path="url(#p25ed3b5a83)" d="M 334.400418 273.312 
L 336.020127 273.312 
L 336.020127 160.672 
L 334.400418 160.672 
z
" style="fill:#1f77b4;"/>
   </g>
   <g id="patch_173">
    <path clip-path="url(#p25ed3b5a83)" d="M 336.020127 273.312 
L 337.639835 273.312 
L 337.639835 171.327135 
L 336.020127 171.327135 
z
" style="fill:#1f77b4;"/>
   </g>
   <g id="patch_174">
    <path clip-path="url(#p25ed3b5a83)" d="M 337.639835 273.312 
L 339.259544 273.312 
L 339.259544 166.760649 
L 337.639835 166.760649 
z
" style="fill:#1f77b4;"/>
   </g>
   <g id="patch_175">
    <path clip-path="url(#p25ed3b5a83)" d="M 339.259544 273.312 
L 340.879252 273.312 
L 340.879252 150.016865 
L 339.259544 150.016865 
z
" style="fill:#1f77b4;"/>
   </g>
   <g id="patch_176">
    <path clip-path="url(#p25ed3b5a83)" d="M 340.879252 273.312 
L 342.498961 273.312 
L 342.498961 178.937946 
L 340.879252 178.937946 
z
" style="fill:#1f77b4;"/>
   </g>
   <g id="patch_177">
    <path clip-path="url(#p25ed3b5a83)" d="M 342.498961 273.312 
L 344.118669 273.312 
L 344.118669 174.371459 
L 342.498961 174.371459 
z
" style="fill:#1f77b4;"/>
   </g>
   <g id="patch_178">
    <path clip-path="url(#p25ed3b5a83)" d="M 344.118669 273.312 
L 345.738378 273.312 
L 345.738378 188.070919 
L 344.118669 188.070919 
z
" style="fill:#1f77b4;"/>
   </g>
   <g id="patch_179">
    <path clip-path="url(#p25ed3b5a83)" d="M 345.738378 273.312 
L 347.358086 273.312 
L 347.358086 183.504432 
L 345.738378 183.504432 
z
" style="fill:#1f77b4;"/>
   </g>
   <g id="patch_180">
    <path clip-path="url(#p25ed3b5a83)" d="M 347.358086 273.312 
L 348.977795 273.312 
L 348.977795 194.920649 
L 347.358086 194.920649 
z
" style="fill:#1f77b4;"/>
   </g>
   <g id="patch_181">
    <path clip-path="url(#p25ed3b5a83)" d="M 348.977795 273.312 
L 350.597504 273.312 
L 350.597504 194.159568 
L 348.977795 194.159568 
z
" style="fill:#1f77b4;"/>
   </g>
   <g id="patch_182">
    <path clip-path="url(#p25ed3b5a83)" d="M 350.597504 273.312 
L 352.217212 273.312 
L 352.217212 201.009297 
L 350.597504 201.009297 
z
" style="fill:#1f77b4;"/>
   </g>
   <g id="patch_183">
    <path clip-path="url(#p25ed3b5a83)" d="M 352.217212 273.312 
L 353.836921 273.312 
L 353.836921 204.814703 
L 352.217212 204.814703 
z
" style="fill:#1f77b4;"/>
   </g>
   <g id="patch_184">
    <path clip-path="url(#p25ed3b5a83)" d="M 353.836921 273.312 
L 355.456629 273.312 
L 355.456629 200.248216 
L 353.836921 200.248216 
z
" style="fill:#1f77b4;"/>
   </g>
   <g id="patch_185">
    <path clip-path="url(#p25ed3b5a83)" d="M 355.456629 273.312 
L 357.076338 273.312 
L 357.076338 204.053622 
L 355.456629 204.053622 
z
" style="fill:#1f77b4;"/>
   </g>
   <g id="patch_186">
    <path clip-path="url(#p25ed3b5a83)" d="M 357.076338 273.312 
L 358.696046 273.312 
L 358.696046 217.753081 
L 357.076338 217.753081 
z
" style="fill:#1f77b4;"/>
   </g>
   <g id="patch_187">
    <path clip-path="url(#p25ed3b5a83)" d="M 358.696046 273.312 
L 360.315755 273.312 
L 360.315755 223.84173 
L 358.696046 223.84173 
z
" style="fill:#1f77b4;"/>
   </g>
   <g id="patch_188">
    <path clip-path="url(#p25ed3b5a83)" d="M 360.315755 273.312 
L 361.935463 273.312 
L 361.935463 225.363892 
L 360.315755 225.363892 
z
" style="fill:#1f77b4;"/>
   </g>
   <g id="patch_189">
    <path clip-path="url(#p25ed3b5a83)" d="M 361.935463 273.312 
L 363.555172 273.312 
L 363.555172 225.363892 
L 361.935463 225.363892 
z
" style="fill:#1f77b4;"/>
   </g>
   <g id="patch_190">
    <path clip-path="url(#p25ed3b5a83)" d="M 363.555172 273.312 
L 365.174881 273.312 
L 365.174881 232.974703 
L 363.555172 232.974703 
z
" style="fill:#1f77b4;"/>
   </g>
   <g id="patch_191">
    <path clip-path="url(#p25ed3b5a83)" d="M 365.174881 273.312 
L 366.794589 273.312 
L 366.794589 226.886054 
L 365.174881 226.886054 
z
" style="fill:#1f77b4;"/>
   </g>
   <g id="patch_192">
    <path clip-path="url(#p25ed3b5a83)" d="M 366.794589 273.312 
L 368.414298 273.312 
L 368.414298 231.452541 
L 366.794589 231.452541 
z
" style="fill:#1f77b4;"/>
   </g>
   <g id="patch_193">
    <path clip-path="url(#p25ed3b5a83)" d="M 368.414298 273.312 
L 370.034006 273.312 
L 370.034006 229.169297 
L 368.414298 229.169297 
z
" style="fill:#1f77b4;"/>
   </g>
   <g id="patch_194">
    <path clip-path="url(#p25ed3b5a83)" d="M 370.034006 273.312 
L 371.653715 273.312 
L 371.653715 243.629838 
L 370.034006 243.629838 
z
" style="fill:#1f77b4;"/>
   </g>
   <g id="patch_195">
    <path clip-path="url(#p25ed3b5a83)" d="M 371.653715 273.312 
L 373.273423 273.312 
L 373.273423 242.868757 
L 371.653715 242.868757 
z
" style="fill:#1f77b4;"/>
   </g>
   <g id="patch_196">
    <path clip-path="url(#p25ed3b5a83)" d="M 373.273423 273.312 
L 374.893132 273.312 
L 374.893132 245.913081 
L 373.273423 245.913081 
z
" style="fill:#1f77b4;"/>
   </g>
   <g id="patch_197">
    <path clip-path="url(#p25ed3b5a83)" d="M 374.893132 273.312 
L 376.51284 273.312 
L 376.51284 253.523892 
L 374.893132 253.523892 
z
" style="fill:#1f77b4;"/>
   </g>
   <g id="patch_198">
    <path clip-path="url(#p25ed3b5a83)" d="M 376.51284 273.312 
L 378.132549 273.312 
L 378.132549 254.284973 
L 376.51284 254.284973 
z
" style="fill:#1f77b4;"/>
   </g>
   <g id="patch_199">
    <path clip-path="url(#p25ed3b5a83)" d="M 378.132549 273.312 
L 379.752257 273.312 
L 379.752257 256.568216 
L 378.132549 256.568216 
z
" style="fill:#1f77b4;"/>
   </g>
   <g id="patch_200">
    <path clip-path="url(#p25ed3b5a83)" d="M 379.752257 273.312 
L 381.371966 273.312 
L 381.371966 262.656865 
L 379.752257 262.656865 
z
" style="fill:#1f77b4;"/>
   </g>
   <g id="patch_201">
    <path clip-path="url(#p25ed3b5a83)" d="M 381.371966 273.312 
L 382.991675 273.312 
L 382.991675 270.267676 
L 381.371966 270.267676 
z
" style="fill:#1f77b4;"/>
   </g>
   <g id="patch_202">
    <path clip-path="url(#p25ed3b5a83)" d="M 382.991675 273.312 
L 384.611383 273.312 
L 384.611383 271.789838 
L 382.991675 271.789838 
z
" style="fill:#1f77b4;"/>
   </g>
   <g id="matplotlib.axis_1">
    <g id="xtick_1">
     <g id="line2d_1">
      <defs>
       <path d="M 0 0 
L 0 3.5 
" id="m8b59522317" style="stroke:#000000;stroke-width:0.8;"/>
      </defs>
      <g>
       <use style="stroke:#000000;stroke-width:0.8;" x="60.013977" xlink:href="#m8b59522317" y="273.312"/>
      </g>
     </g>
     <g id="text_1">
      <!-- 0.0 -->
      <g transform="translate(52.062415 287.910437)scale(0.1 -0.1)">
       <defs>
        <path d="M 2034 4250 
Q 1547 4250 1301 3770 
Q 1056 3291 1056 2328 
Q 1056 1369 1301 889 
Q 1547 409 2034 409 
Q 2525 409 2770 889 
Q 3016 1369 3016 2328 
Q 3016 3291 2770 3770 
Q 2525 4250 2034 4250 
z
M 2034 4750 
Q 2819 4750 3233 4129 
Q 3647 3509 3647 2328 
Q 3647 1150 3233 529 
Q 2819 -91 2034 -91 
Q 1250 -91 836 529 
Q 422 1150 422 2328 
Q 422 3509 836 4129 
Q 1250 4750 2034 4750 
z
" id="DejaVuSans-30" transform="scale(0.015625)"/>
        <path d="M 684 794 
L 1344 794 
L 1344 0 
L 684 0 
L 684 794 
z
" id="DejaVuSans-2e" transform="scale(0.015625)"/>
       </defs>
       <use xlink:href="#DejaVuSans-30"/>
       <use x="63.623047" xlink:href="#DejaVuSans-2e"/>
       <use x="95.410156" xlink:href="#DejaVuSans-30"/>
      </g>
     </g>
    </g>
    <g id="xtick_2">
     <g id="line2d_2">
      <g>
       <use style="stroke:#000000;stroke-width:0.8;" x="101.350278" xlink:href="#m8b59522317" y="273.312"/>
      </g>
     </g>
     <g id="text_2">
      <!-- 0.2 -->
      <g transform="translate(93.398715 287.910437)scale(0.1 -0.1)">
       <defs>
        <path d="M 1228 531 
L 3431 531 
L 3431 0 
L 469 0 
L 469 531 
Q 828 903 1448 1529 
Q 2069 2156 2228 2338 
Q 2531 2678 2651 2914 
Q 2772 3150 2772 3378 
Q 2772 3750 2511 3984 
Q 2250 4219 1831 4219 
Q 1534 4219 1204 4116 
Q 875 4013 500 3803 
L 500 4441 
Q 881 4594 1212 4672 
Q 1544 4750 1819 4750 
Q 2544 4750 2975 4387 
Q 3406 4025 3406 3419 
Q 3406 3131 3298 2873 
Q 3191 2616 2906 2266 
Q 2828 2175 2409 1742 
Q 1991 1309 1228 531 
z
" id="DejaVuSans-32" transform="scale(0.015625)"/>
       </defs>
       <use xlink:href="#DejaVuSans-30"/>
       <use x="63.623047" xlink:href="#DejaVuSans-2e"/>
       <use x="95.410156" xlink:href="#DejaVuSans-32"/>
      </g>
     </g>
    </g>
    <g id="xtick_3">
     <g id="line2d_3">
      <g>
       <use style="stroke:#000000;stroke-width:0.8;" x="142.686578" xlink:href="#m8b59522317" y="273.312"/>
      </g>
     </g>
     <g id="text_3">
      <!-- 0.4 -->
      <g transform="translate(134.735016 287.910437)scale(0.1 -0.1)">
       <defs>
        <path d="M 2419 4116 
L 825 1625 
L 2419 1625 
L 2419 4116 
z
M 2253 4666 
L 3047 4666 
L 3047 1625 
L 3713 1625 
L 3713 1100 
L 3047 1100 
L 3047 0 
L 2419 0 
L 2419 1100 
L 313 1100 
L 313 1709 
L 2253 4666 
z
" id="DejaVuSans-34" transform="scale(0.015625)"/>
       </defs>
       <use xlink:href="#DejaVuSans-30"/>
       <use x="63.623047" xlink:href="#DejaVuSans-2e"/>
       <use x="95.410156" xlink:href="#DejaVuSans-34"/>
      </g>
     </g>
    </g>
    <g id="xtick_4">
     <g id="line2d_4">
      <g>
       <use style="stroke:#000000;stroke-width:0.8;" x="184.022879" xlink:href="#m8b59522317" y="273.312"/>
      </g>
     </g>
     <g id="text_4">
      <!-- 0.6 -->
      <g transform="translate(176.071316 287.910437)scale(0.1 -0.1)">
       <defs>
        <path d="M 2113 2584 
Q 1688 2584 1439 2293 
Q 1191 2003 1191 1497 
Q 1191 994 1439 701 
Q 1688 409 2113 409 
Q 2538 409 2786 701 
Q 3034 994 3034 1497 
Q 3034 2003 2786 2293 
Q 2538 2584 2113 2584 
z
M 3366 4563 
L 3366 3988 
Q 3128 4100 2886 4159 
Q 2644 4219 2406 4219 
Q 1781 4219 1451 3797 
Q 1122 3375 1075 2522 
Q 1259 2794 1537 2939 
Q 1816 3084 2150 3084 
Q 2853 3084 3261 2657 
Q 3669 2231 3669 1497 
Q 3669 778 3244 343 
Q 2819 -91 2113 -91 
Q 1303 -91 875 529 
Q 447 1150 447 2328 
Q 447 3434 972 4092 
Q 1497 4750 2381 4750 
Q 2619 4750 2861 4703 
Q 3103 4656 3366 4563 
z
" id="DejaVuSans-36" transform="scale(0.015625)"/>
       </defs>
       <use xlink:href="#DejaVuSans-30"/>
       <use x="63.623047" xlink:href="#DejaVuSans-2e"/>
       <use x="95.410156" xlink:href="#DejaVuSans-36"/>
      </g>
     </g>
    </g>
    <g id="xtick_5">
     <g id="line2d_5">
      <g>
       <use style="stroke:#000000;stroke-width:0.8;" x="225.35918" xlink:href="#m8b59522317" y="273.312"/>
      </g>
     </g>
     <g id="text_5">
      <!-- 0.8 -->
      <g transform="translate(217.407617 287.910437)scale(0.1 -0.1)">
       <defs>
        <path d="M 2034 2216 
Q 1584 2216 1326 1975 
Q 1069 1734 1069 1313 
Q 1069 891 1326 650 
Q 1584 409 2034 409 
Q 2484 409 2743 651 
Q 3003 894 3003 1313 
Q 3003 1734 2745 1975 
Q 2488 2216 2034 2216 
z
M 1403 2484 
Q 997 2584 770 2862 
Q 544 3141 544 3541 
Q 544 4100 942 4425 
Q 1341 4750 2034 4750 
Q 2731 4750 3128 4425 
Q 3525 4100 3525 3541 
Q 3525 3141 3298 2862 
Q 3072 2584 2669 2484 
Q 3125 2378 3379 2068 
Q 3634 1759 3634 1313 
Q 3634 634 3220 271 
Q 2806 -91 2034 -91 
Q 1263 -91 848 271 
Q 434 634 434 1313 
Q 434 1759 690 2068 
Q 947 2378 1403 2484 
z
M 1172 3481 
Q 1172 3119 1398 2916 
Q 1625 2713 2034 2713 
Q 2441 2713 2670 2916 
Q 2900 3119 2900 3481 
Q 2900 3844 2670 4047 
Q 2441 4250 2034 4250 
Q 1625 4250 1398 4047 
Q 1172 3844 1172 3481 
z
" id="DejaVuSans-38" transform="scale(0.015625)"/>
       </defs>
       <use xlink:href="#DejaVuSans-30"/>
       <use x="63.623047" xlink:href="#DejaVuSans-2e"/>
       <use x="95.410156" xlink:href="#DejaVuSans-38"/>
      </g>
     </g>
    </g>
    <g id="xtick_6">
     <g id="line2d_6">
      <g>
       <use style="stroke:#000000;stroke-width:0.8;" x="266.69548" xlink:href="#m8b59522317" y="273.312"/>
      </g>
     </g>
     <g id="text_6">
      <!-- 1.0 -->
      <g transform="translate(258.743918 287.910437)scale(0.1 -0.1)">
       <defs>
        <path d="M 794 531 
L 1825 531 
L 1825 4091 
L 703 3866 
L 703 4441 
L 1819 4666 
L 2450 4666 
L 2450 531 
L 3481 531 
L 3481 0 
L 794 0 
L 794 531 
z
" id="DejaVuSans-31" transform="scale(0.015625)"/>
       </defs>
       <use xlink:href="#DejaVuSans-31"/>
       <use x="63.623047" xlink:href="#DejaVuSans-2e"/>
       <use x="95.410156" xlink:href="#DejaVuSans-30"/>
      </g>
     </g>
    </g>
    <g id="xtick_7">
     <g id="line2d_7">
      <g>
       <use style="stroke:#000000;stroke-width:0.8;" x="308.031781" xlink:href="#m8b59522317" y="273.312"/>
      </g>
     </g>
     <g id="text_7">
      <!-- 1.2 -->
      <g transform="translate(300.080218 287.910437)scale(0.1 -0.1)">
       <use xlink:href="#DejaVuSans-31"/>
       <use x="63.623047" xlink:href="#DejaVuSans-2e"/>
       <use x="95.410156" xlink:href="#DejaVuSans-32"/>
      </g>
     </g>
    </g>
    <g id="xtick_8">
     <g id="line2d_8">
      <g>
       <use style="stroke:#000000;stroke-width:0.8;" x="349.368081" xlink:href="#m8b59522317" y="273.312"/>
      </g>
     </g>
     <g id="text_8">
      <!-- 1.4 -->
      <g transform="translate(341.416519 287.910437)scale(0.1 -0.1)">
       <use xlink:href="#DejaVuSans-31"/>
       <use x="63.623047" xlink:href="#DejaVuSans-2e"/>
       <use x="95.410156" xlink:href="#DejaVuSans-34"/>
      </g>
     </g>
    </g>
    <g id="xtick_9">
     <g id="line2d_9">
      <g>
       <use style="stroke:#000000;stroke-width:0.8;" x="390.704382" xlink:href="#m8b59522317" y="273.312"/>
      </g>
     </g>
     <g id="text_9">
      <!-- 1.6 -->
      <g transform="translate(382.752819 287.910437)scale(0.1 -0.1)">
       <use xlink:href="#DejaVuSans-31"/>
       <use x="63.623047" xlink:href="#DejaVuSans-2e"/>
       <use x="95.410156" xlink:href="#DejaVuSans-36"/>
      </g>
     </g>
    </g>
    <g id="text_10">
     <!-- Angle with normal (rad) -->
     <g transform="translate(163.023281 301.588562)scale(0.1 -0.1)">
      <defs>
       <path d="M 2188 4044 
L 1331 1722 
L 3047 1722 
L 2188 4044 
z
M 1831 4666 
L 2547 4666 
L 4325 0 
L 3669 0 
L 3244 1197 
L 1141 1197 
L 716 0 
L 50 0 
L 1831 4666 
z
" id="DejaVuSans-41" transform="scale(0.015625)"/>
       <path d="M 3513 2113 
L 3513 0 
L 2938 0 
L 2938 2094 
Q 2938 2591 2744 2837 
Q 2550 3084 2163 3084 
Q 1697 3084 1428 2787 
Q 1159 2491 1159 1978 
L 1159 0 
L 581 0 
L 581 3500 
L 1159 3500 
L 1159 2956 
Q 1366 3272 1645 3428 
Q 1925 3584 2291 3584 
Q 2894 3584 3203 3211 
Q 3513 2838 3513 2113 
z
" id="DejaVuSans-6e" transform="scale(0.015625)"/>
       <path d="M 2906 1791 
Q 2906 2416 2648 2759 
Q 2391 3103 1925 3103 
Q 1463 3103 1205 2759 
Q 947 2416 947 1791 
Q 947 1169 1205 825 
Q 1463 481 1925 481 
Q 2391 481 2648 825 
Q 2906 1169 2906 1791 
z
M 3481 434 
Q 3481 -459 3084 -895 
Q 2688 -1331 1869 -1331 
Q 1566 -1331 1297 -1286 
Q 1028 -1241 775 -1147 
L 775 -588 
Q 1028 -725 1275 -790 
Q 1522 -856 1778 -856 
Q 2344 -856 2625 -561 
Q 2906 -266 2906 331 
L 2906 616 
Q 2728 306 2450 153 
Q 2172 0 1784 0 
Q 1141 0 747 490 
Q 353 981 353 1791 
Q 353 2603 747 3093 
Q 1141 3584 1784 3584 
Q 2172 3584 2450 3431 
Q 2728 3278 2906 2969 
L 2906 3500 
L 3481 3500 
L 3481 434 
z
" id="DejaVuSans-67" transform="scale(0.015625)"/>
       <path d="M 603 4863 
L 1178 4863 
L 1178 0 
L 603 0 
L 603 4863 
z
" id="DejaVuSans-6c" transform="scale(0.015625)"/>
       <path d="M 3597 1894 
L 3597 1613 
L 953 1613 
Q 991 1019 1311 708 
Q 1631 397 2203 397 
Q 2534 397 2845 478 
Q 3156 559 3463 722 
L 3463 178 
Q 3153 47 2828 -22 
Q 2503 -91 2169 -91 
Q 1331 -91 842 396 
Q 353 884 353 1716 
Q 353 2575 817 3079 
Q 1281 3584 2069 3584 
Q 2775 3584 3186 3129 
Q 3597 2675 3597 1894 
z
M 3022 2063 
Q 3016 2534 2758 2815 
Q 2500 3097 2075 3097 
Q 1594 3097 1305 2825 
Q 1016 2553 972 2059 
L 3022 2063 
z
" id="DejaVuSans-65" transform="scale(0.015625)"/>
       <path id="DejaVuSans-20" transform="scale(0.015625)"/>
       <path d="M 269 3500 
L 844 3500 
L 1563 769 
L 2278 3500 
L 2956 3500 
L 3675 769 
L 4391 3500 
L 4966 3500 
L 4050 0 
L 3372 0 
L 2619 2869 
L 1863 0 
L 1184 0 
L 269 3500 
z
" id="DejaVuSans-77" transform="scale(0.015625)"/>
       <path d="M 603 3500 
L 1178 3500 
L 1178 0 
L 603 0 
L 603 3500 
z
M 603 4863 
L 1178 4863 
L 1178 4134 
L 603 4134 
L 603 4863 
z
" id="DejaVuSans-69" transform="scale(0.015625)"/>
       <path d="M 1172 4494 
L 1172 3500 
L 2356 3500 
L 2356 3053 
L 1172 3053 
L 1172 1153 
Q 1172 725 1289 603 
Q 1406 481 1766 481 
L 2356 481 
L 2356 0 
L 1766 0 
Q 1100 0 847 248 
Q 594 497 594 1153 
L 594 3053 
L 172 3053 
L 172 3500 
L 594 3500 
L 594 4494 
L 1172 4494 
z
" id="DejaVuSans-74" transform="scale(0.015625)"/>
       <path d="M 3513 2113 
L 3513 0 
L 2938 0 
L 2938 2094 
Q 2938 2591 2744 2837 
Q 2550 3084 2163 3084 
Q 1697 3084 1428 2787 
Q 1159 2491 1159 1978 
L 1159 0 
L 581 0 
L 581 4863 
L 1159 4863 
L 1159 2956 
Q 1366 3272 1645 3428 
Q 1925 3584 2291 3584 
Q 2894 3584 3203 3211 
Q 3513 2838 3513 2113 
z
" id="DejaVuSans-68" transform="scale(0.015625)"/>
       <path d="M 1959 3097 
Q 1497 3097 1228 2736 
Q 959 2375 959 1747 
Q 959 1119 1226 758 
Q 1494 397 1959 397 
Q 2419 397 2687 759 
Q 2956 1122 2956 1747 
Q 2956 2369 2687 2733 
Q 2419 3097 1959 3097 
z
M 1959 3584 
Q 2709 3584 3137 3096 
Q 3566 2609 3566 1747 
Q 3566 888 3137 398 
Q 2709 -91 1959 -91 
Q 1206 -91 779 398 
Q 353 888 353 1747 
Q 353 2609 779 3096 
Q 1206 3584 1959 3584 
z
" id="DejaVuSans-6f" transform="scale(0.015625)"/>
       <path d="M 2631 2963 
Q 2534 3019 2420 3045 
Q 2306 3072 2169 3072 
Q 1681 3072 1420 2755 
Q 1159 2438 1159 1844 
L 1159 0 
L 581 0 
L 581 3500 
L 1159 3500 
L 1159 2956 
Q 1341 3275 1631 3429 
Q 1922 3584 2338 3584 
Q 2397 3584 2469 3576 
Q 2541 3569 2628 3553 
L 2631 2963 
z
" id="DejaVuSans-72" transform="scale(0.015625)"/>
       <path d="M 3328 2828 
Q 3544 3216 3844 3400 
Q 4144 3584 4550 3584 
Q 5097 3584 5394 3201 
Q 5691 2819 5691 2113 
L 5691 0 
L 5113 0 
L 5113 2094 
Q 5113 2597 4934 2840 
Q 4756 3084 4391 3084 
Q 3944 3084 3684 2787 
Q 3425 2491 3425 1978 
L 3425 0 
L 2847 0 
L 2847 2094 
Q 2847 2600 2669 2842 
Q 2491 3084 2119 3084 
Q 1678 3084 1418 2786 
Q 1159 2488 1159 1978 
L 1159 0 
L 581 0 
L 581 3500 
L 1159 3500 
L 1159 2956 
Q 1356 3278 1631 3431 
Q 1906 3584 2284 3584 
Q 2666 3584 2933 3390 
Q 3200 3197 3328 2828 
z
" id="DejaVuSans-6d" transform="scale(0.015625)"/>
       <path d="M 2194 1759 
Q 1497 1759 1228 1600 
Q 959 1441 959 1056 
Q 959 750 1161 570 
Q 1363 391 1709 391 
Q 2188 391 2477 730 
Q 2766 1069 2766 1631 
L 2766 1759 
L 2194 1759 
z
M 3341 1997 
L 3341 0 
L 2766 0 
L 2766 531 
Q 2569 213 2275 61 
Q 1981 -91 1556 -91 
Q 1019 -91 701 211 
Q 384 513 384 1019 
Q 384 1609 779 1909 
Q 1175 2209 1959 2209 
L 2766 2209 
L 2766 2266 
Q 2766 2663 2505 2880 
Q 2244 3097 1772 3097 
Q 1472 3097 1187 3025 
Q 903 2953 641 2809 
L 641 3341 
Q 956 3463 1253 3523 
Q 1550 3584 1831 3584 
Q 2591 3584 2966 3190 
Q 3341 2797 3341 1997 
z
" id="DejaVuSans-61" transform="scale(0.015625)"/>
       <path d="M 1984 4856 
Q 1566 4138 1362 3434 
Q 1159 2731 1159 2009 
Q 1159 1288 1364 580 
Q 1569 -128 1984 -844 
L 1484 -844 
Q 1016 -109 783 600 
Q 550 1309 550 2009 
Q 550 2706 781 3412 
Q 1013 4119 1484 4856 
L 1984 4856 
z
" id="DejaVuSans-28" transform="scale(0.015625)"/>
       <path d="M 2906 2969 
L 2906 4863 
L 3481 4863 
L 3481 0 
L 2906 0 
L 2906 525 
Q 2725 213 2448 61 
Q 2172 -91 1784 -91 
Q 1150 -91 751 415 
Q 353 922 353 1747 
Q 353 2572 751 3078 
Q 1150 3584 1784 3584 
Q 2172 3584 2448 3432 
Q 2725 3281 2906 2969 
z
M 947 1747 
Q 947 1113 1208 752 
Q 1469 391 1925 391 
Q 2381 391 2643 752 
Q 2906 1113 2906 1747 
Q 2906 2381 2643 2742 
Q 2381 3103 1925 3103 
Q 1469 3103 1208 2742 
Q 947 2381 947 1747 
z
" id="DejaVuSans-64" transform="scale(0.015625)"/>
       <path d="M 513 4856 
L 1013 4856 
Q 1481 4119 1714 3412 
Q 1947 2706 1947 2009 
Q 1947 1309 1714 600 
Q 1481 -109 1013 -844 
L 513 -844 
Q 928 -128 1133 580 
Q 1338 1288 1338 2009 
Q 1338 2731 1133 3434 
Q 928 4138 513 4856 
z
" id="DejaVuSans-29" transform="scale(0.015625)"/>
      </defs>
      <use xlink:href="#DejaVuSans-41"/>
      <use x="68.408203" xlink:href="#DejaVuSans-6e"/>
      <use x="131.787109" xlink:href="#DejaVuSans-67"/>
      <use x="195.263672" xlink:href="#DejaVuSans-6c"/>
      <use x="223.046875" xlink:href="#DejaVuSans-65"/>
      <use x="284.570312" xlink:href="#DejaVuSans-20"/>
      <use x="316.357422" xlink:href="#DejaVuSans-77"/>
      <use x="398.144531" xlink:href="#DejaVuSans-69"/>
      <use x="425.927734" xlink:href="#DejaVuSans-74"/>
      <use x="465.136719" xlink:href="#DejaVuSans-68"/>
      <use x="528.515625" xlink:href="#DejaVuSans-20"/>
      <use x="560.302734" xlink:href="#DejaVuSans-6e"/>
      <use x="623.681641" xlink:href="#DejaVuSans-6f"/>
      <use x="684.863281" xlink:href="#DejaVuSans-72"/>
      <use x="724.226562" xlink:href="#DejaVuSans-6d"/>
      <use x="821.638672" xlink:href="#DejaVuSans-61"/>
      <use x="882.917969" xlink:href="#DejaVuSans-6c"/>
      <use x="910.701172" xlink:href="#DejaVuSans-20"/>
      <use x="942.488281" xlink:href="#DejaVuSans-28"/>
      <use x="981.501953" xlink:href="#DejaVuSans-72"/>
      <use x="1022.615234" xlink:href="#DejaVuSans-61"/>
      <use x="1083.894531" xlink:href="#DejaVuSans-64"/>
      <use x="1147.371094" xlink:href="#DejaVuSans-29"/>
     </g>
    </g>
   </g>
   <g id="matplotlib.axis_2">
    <g id="ytick_1">
     <g id="line2d_10">
      <defs>
       <path d="M 0 0 
L -3.5 0 
" id="m35e79e6b51" style="stroke:#000000;stroke-width:0.8;"/>
      </defs>
      <g>
       <use style="stroke:#000000;stroke-width:0.8;" x="43.78125" xlink:href="#m35e79e6b51" y="273.312"/>
      </g>
     </g>
     <g id="text_11">
      <!-- 0.0 -->
      <g transform="translate(20.878125 277.111219)scale(0.1 -0.1)">
       <use xlink:href="#DejaVuSans-30"/>
       <use x="63.623047" xlink:href="#DejaVuSans-2e"/>
       <use x="95.410156" xlink:href="#DejaVuSans-30"/>
      </g>
     </g>
    </g>
    <g id="ytick_2">
     <g id="line2d_11">
      <g>
       <use style="stroke:#000000;stroke-width:0.8;" x="43.78125" xlink:href="#m35e79e6b51" y="225.596863"/>
      </g>
     </g>
     <g id="text_12">
      <!-- 0.2 -->
      <g transform="translate(20.878125 229.396081)scale(0.1 -0.1)">
       <use xlink:href="#DejaVuSans-30"/>
       <use x="63.623047" xlink:href="#DejaVuSans-2e"/>
       <use x="95.410156" xlink:href="#DejaVuSans-32"/>
      </g>
     </g>
    </g>
    <g id="ytick_3">
     <g id="line2d_12">
      <g>
       <use style="stroke:#000000;stroke-width:0.8;" x="43.78125" xlink:href="#m35e79e6b51" y="177.881725"/>
      </g>
     </g>
     <g id="text_13">
      <!-- 0.4 -->
      <g transform="translate(20.878125 181.680944)scale(0.1 -0.1)">
       <use xlink:href="#DejaVuSans-30"/>
       <use x="63.623047" xlink:href="#DejaVuSans-2e"/>
       <use x="95.410156" xlink:href="#DejaVuSans-34"/>
      </g>
     </g>
    </g>
    <g id="ytick_4">
     <g id="line2d_13">
      <g>
       <use style="stroke:#000000;stroke-width:0.8;" x="43.78125" xlink:href="#m35e79e6b51" y="130.166588"/>
      </g>
     </g>
     <g id="text_14">
      <!-- 0.6 -->
      <g transform="translate(20.878125 133.965807)scale(0.1 -0.1)">
       <use xlink:href="#DejaVuSans-30"/>
       <use x="63.623047" xlink:href="#DejaVuSans-2e"/>
       <use x="95.410156" xlink:href="#DejaVuSans-36"/>
      </g>
     </g>
    </g>
    <g id="ytick_5">
     <g id="line2d_14">
      <g>
       <use style="stroke:#000000;stroke-width:0.8;" x="43.78125" xlink:href="#m35e79e6b51" y="82.451451"/>
      </g>
     </g>
     <g id="text_15">
      <!-- 0.8 -->
      <g transform="translate(20.878125 86.25067)scale(0.1 -0.1)">
       <use xlink:href="#DejaVuSans-30"/>
       <use x="63.623047" xlink:href="#DejaVuSans-2e"/>
       <use x="95.410156" xlink:href="#DejaVuSans-38"/>
      </g>
     </g>
    </g>
    <g id="ytick_6">
     <g id="line2d_15">
      <g>
       <use style="stroke:#000000;stroke-width:0.8;" x="43.78125" xlink:href="#m35e79e6b51" y="34.736314"/>
      </g>
     </g>
     <g id="text_16">
      <!-- 1.0 -->
      <g transform="translate(20.878125 38.535532)scale(0.1 -0.1)">
       <use xlink:href="#DejaVuSans-31"/>
       <use x="63.623047" xlink:href="#DejaVuSans-2e"/>
       <use x="95.410156" xlink:href="#DejaVuSans-30"/>
      </g>
     </g>
    </g>
    <g id="text_17">
     <!-- Probability density -->
     <g transform="translate(14.798438 186.606781)rotate(-90)scale(0.1 -0.1)">
      <defs>
       <path d="M 1259 4147 
L 1259 2394 
L 2053 2394 
Q 2494 2394 2734 2622 
Q 2975 2850 2975 3272 
Q 2975 3691 2734 3919 
Q 2494 4147 2053 4147 
L 1259 4147 
z
M 628 4666 
L 2053 4666 
Q 2838 4666 3239 4311 
Q 3641 3956 3641 3272 
Q 3641 2581 3239 2228 
Q 2838 1875 2053 1875 
L 1259 1875 
L 1259 0 
L 628 0 
L 628 4666 
z
" id="DejaVuSans-50" transform="scale(0.015625)"/>
       <path d="M 3116 1747 
Q 3116 2381 2855 2742 
Q 2594 3103 2138 3103 
Q 1681 3103 1420 2742 
Q 1159 2381 1159 1747 
Q 1159 1113 1420 752 
Q 1681 391 2138 391 
Q 2594 391 2855 752 
Q 3116 1113 3116 1747 
z
M 1159 2969 
Q 1341 3281 1617 3432 
Q 1894 3584 2278 3584 
Q 2916 3584 3314 3078 
Q 3713 2572 3713 1747 
Q 3713 922 3314 415 
Q 2916 -91 2278 -91 
Q 1894 -91 1617 61 
Q 1341 213 1159 525 
L 1159 0 
L 581 0 
L 581 4863 
L 1159 4863 
L 1159 2969 
z
" id="DejaVuSans-62" transform="scale(0.015625)"/>
       <path d="M 2059 -325 
Q 1816 -950 1584 -1140 
Q 1353 -1331 966 -1331 
L 506 -1331 
L 506 -850 
L 844 -850 
Q 1081 -850 1212 -737 
Q 1344 -625 1503 -206 
L 1606 56 
L 191 3500 
L 800 3500 
L 1894 763 
L 2988 3500 
L 3597 3500 
L 2059 -325 
z
" id="DejaVuSans-79" transform="scale(0.015625)"/>
       <path d="M 2834 3397 
L 2834 2853 
Q 2591 2978 2328 3040 
Q 2066 3103 1784 3103 
Q 1356 3103 1142 2972 
Q 928 2841 928 2578 
Q 928 2378 1081 2264 
Q 1234 2150 1697 2047 
L 1894 2003 
Q 2506 1872 2764 1633 
Q 3022 1394 3022 966 
Q 3022 478 2636 193 
Q 2250 -91 1575 -91 
Q 1294 -91 989 -36 
Q 684 19 347 128 
L 347 722 
Q 666 556 975 473 
Q 1284 391 1588 391 
Q 1994 391 2212 530 
Q 2431 669 2431 922 
Q 2431 1156 2273 1281 
Q 2116 1406 1581 1522 
L 1381 1569 
Q 847 1681 609 1914 
Q 372 2147 372 2553 
Q 372 3047 722 3315 
Q 1072 3584 1716 3584 
Q 2034 3584 2315 3537 
Q 2597 3491 2834 3397 
z
" id="DejaVuSans-73" transform="scale(0.015625)"/>
      </defs>
      <use xlink:href="#DejaVuSans-50"/>
      <use x="58.552734" xlink:href="#DejaVuSans-72"/>
      <use x="97.416016" xlink:href="#DejaVuSans-6f"/>
      <use x="158.597656" xlink:href="#DejaVuSans-62"/>
      <use x="222.074219" xlink:href="#DejaVuSans-61"/>
      <use x="283.353516" xlink:href="#DejaVuSans-62"/>
      <use x="346.830078" xlink:href="#DejaVuSans-69"/>
      <use x="374.613281" xlink:href="#DejaVuSans-6c"/>
      <use x="402.396484" xlink:href="#DejaVuSans-69"/>
      <use x="430.179688" xlink:href="#DejaVuSans-74"/>
      <use x="469.388672" xlink:href="#DejaVuSans-79"/>
      <use x="528.568359" xlink:href="#DejaVuSans-20"/>
      <use x="560.355469" xlink:href="#DejaVuSans-64"/>
      <use x="623.832031" xlink:href="#DejaVuSans-65"/>
      <use x="685.355469" xlink:href="#DejaVuSans-6e"/>
      <use x="748.734375" xlink:href="#DejaVuSans-73"/>
      <use x="800.833984" xlink:href="#DejaVuSans-69"/>
      <use x="828.617188" xlink:href="#DejaVuSans-74"/>
      <use x="867.826172" xlink:href="#DejaVuSans-79"/>
     </g>
    </g>
   </g>
   <g id="line2d_16">
    <path clip-path="url(#p25ed3b5a83)" d="M 60.013977 273.312 
L 79.512749 228.563157 
L 89.912094 205.247176 
L 98.686541 186.100631 
L 106.486049 169.6048 
L 113.635599 155.000094 
L 120.135189 142.212518 
L 126.3098 130.543756 
L 132.159432 119.958505 
L 137.684084 110.411825 
L 142.883756 101.851442 
L 148.083429 93.725049 
L 152.958121 86.519017 
L 157.507835 80.168004 
L 162.057548 74.191305 
L 166.282282 68.986813 
L 170.507016 64.123762 
L 174.73175 59.610281 
L 178.631504 55.76079 
L 182.531258 52.221071 
L 186.431012 48.996163 
L 190.005787 46.320481 
L 193.580562 43.916393 
L 197.155337 41.786776 
L 200.730112 39.934177 
L 203.979907 38.492257 
L 207.229702 37.282539 
L 210.479497 36.30622 
L 213.729293 35.564266 
L 216.979088 35.05741 
L 220.228883 34.786153 
L 223.478678 34.750764 
L 226.728474 34.951278 
L 229.978269 35.387496 
L 233.228064 36.058988 
L 236.477859 36.965088 
L 239.727655 38.104901 
L 242.97745 39.4773 
L 246.227245 41.080928 
L 249.47704 42.914199 
L 253.051815 45.193865 
L 256.62659 47.746473 
L 260.201365 50.568968 
L 263.776139 53.657975 
L 267.675894 57.327403 
L 271.575648 61.304372 
L 275.475402 65.583219 
L 279.700136 70.552221 
L 283.92487 75.860049 
L 288.474583 81.944909 
L 293.024297 88.400639 
L 297.89899 95.714817 
L 302.773682 103.424094 
L 307.973355 112.063471 
L 313.498007 121.689496 
L 319.347638 132.353365 
L 325.522249 144.098819 
L 332.02184 156.959844 
L 338.84641 170.958175 
L 346.320939 186.799395 
L 354.770406 205.247176 
L 364.519792 227.090167 
L 377.193994 256.07111 
L 384.668523 273.312 
L 384.668523 273.312 
" style="fill:none;stroke:#ff7f0e;stroke-linecap:square;stroke-width:1.5;"/>
   </g>
   <g id="patch_203">
    <path d="M 43.78125 273.312 
L 43.78125 7.2 
" style="fill:none;stroke:#000000;stroke-linecap:square;stroke-linejoin:miter;stroke-width:0.8;"/>
   </g>
   <g id="patch_204">
    <path d="M 400.90125 273.312 
L 400.90125 7.2 
" style="fill:none;stroke:#000000;stroke-linecap:square;stroke-linejoin:miter;stroke-width:0.8;"/>
   </g>
   <g id="patch_205">
    <path d="M 43.78125 273.312 
L 400.90125 273.312 
" style="fill:none;stroke:#000000;stroke-linecap:square;stroke-linejoin:miter;stroke-width:0.8;"/>
   </g>
   <g id="patch_206">
    <path d="M 43.78125 7.2 
L 400.90125 7.2 
" style="fill:none;stroke:#000000;stroke-linecap:square;stroke-linejoin:miter;stroke-width:0.8;"/>
   </g>
  </g>
 </g>
 <defs>
  <clipPath id="p25ed3b5a83">
   <rect height="266.112" width="357.12" x="43.78125" y="7.2"/>
  </clipPath>
 </defs>
</svg>
