<?xml version="1.0" encoding="utf-8" standalone="no"?>
<!DOCTYPE svg PUBLIC "-//W3C//DTD SVG 1.1//EN"
  "http://www.w3.org/Graphics/SVG/1.1/DTD/svg11.dtd">
<svg height="310.86825pt" version="1.1" viewBox="0 0 414.46375 310.86825" width="414.46375pt" xmlns="http://www.w3.org/2000/svg" xmlns:xlink="http://www.w3.org/1999/xlink">
 <metadata>
  <rdf:RDF xmlns:cc="http://creativecommons.org/ns#" xmlns:dc="http://purl.org/dc/elements/1.1/" xmlns:rdf="http://www.w3.org/1999/02/22-rdf-syntax-ns#">
   <cc:Work>
    <dc:type rdf:resource="http://purl.org/dc/dcmitype/StillImage"/>
    <dc:date>2021-09-17T15:00:22.347919</dc:date>
    <dc:format>image/svg+xml</dc:format>
    <dc:creator>
     <cc:Agent>
      <dc:title>Matplotlib v3.4.3, https://matplotlib.org/</dc:title>
     </cc:Agent>
    </dc:creator>
   </cc:Work>
  </rdf:RDF>
 </metadata>
 <defs>
  <style type="text/css">*{stroke-linecap:butt;stroke-linejoin:round;}</style>
 </defs>
 <g id="figure_1">
  <g id="patch_1">
   <path d="M 0 310.86825 
L 414.46375 310.86825 
L 414.46375 0 
L 0 0 
z
" style="fill:#ffffff;"/>
  </g>
  <g id="axes_1">
   <g id="patch_2">
    <path d="M 50.14375 273.312 
L 407.26375 273.312 
L 407.26375 7.2 
L 50.14375 7.2 
z
" style="fill:#ffffff;"/>
   </g>
   <g id="patch_3">
    <path clip-path="url(#p2f33fc3f01)" d="M 66.466232 273.312 
L 68.089048 273.312 
L 68.089048 272.072685 
L 66.466232 272.072685 
z
" style="fill:#1f77b4;"/>
   </g>
   <g id="patch_4">
    <path clip-path="url(#p2f33fc3f01)" d="M 68.089048 273.312 
L 69.711864 273.312 
L 69.711864 272.692342 
L 68.089048 272.692342 
z
" style="fill:#1f77b4;"/>
   </g>
   <g id="patch_5">
    <path clip-path="url(#p2f33fc3f01)" d="M 69.711864 273.312 
L 71.334679 273.312 
L 71.334679 272.072685 
L 69.711864 272.072685 
z
" style="fill:#1f77b4;"/>
   </g>
   <g id="patch_6">
    <path clip-path="url(#p2f33fc3f01)" d="M 71.334679 273.312 
L 72.957495 273.312 
L 72.957495 268.354738 
L 71.334679 268.354738 
z
" style="fill:#1f77b4;"/>
   </g>
   <g id="patch_7">
    <path clip-path="url(#p2f33fc3f01)" d="M 72.957495 273.312 
L 74.580311 273.312 
L 74.580311 268.354738 
L 72.957495 268.354738 
z
" style="fill:#1f77b4;"/>
   </g>
   <g id="patch_8">
    <path clip-path="url(#p2f33fc3f01)" d="M 74.580311 273.312 
L 76.203127 273.312 
L 76.203127 262.777819 
L 74.580311 262.777819 
z
" style="fill:#1f77b4;"/>
   </g>
   <g id="patch_9">
    <path clip-path="url(#p2f33fc3f01)" d="M 76.203127 273.312 
L 77.825942 273.312 
L 77.825942 264.636792 
L 76.203127 264.636792 
z
" style="fill:#1f77b4;"/>
   </g>
   <g id="patch_10">
    <path clip-path="url(#p2f33fc3f01)" d="M 77.825942 273.312 
L 79.448758 273.312 
L 79.448758 262.777819 
L 77.825942 262.777819 
z
" style="fill:#1f77b4;"/>
   </g>
   <g id="patch_11">
    <path clip-path="url(#p2f33fc3f01)" d="M 79.448758 273.312 
L 81.071574 273.312 
L 81.071574 262.777819 
L 79.448758 262.777819 
z
" style="fill:#1f77b4;"/>
   </g>
   <g id="patch_12">
    <path clip-path="url(#p2f33fc3f01)" d="M 81.071574 273.312 
L 82.69439 273.312 
L 82.69439 259.059873 
L 81.071574 259.059873 
z
" style="fill:#1f77b4;"/>
   </g>
   <g id="patch_13">
    <path clip-path="url(#p2f33fc3f01)" d="M 82.69439 273.312 
L 84.317206 273.312 
L 84.317206 260.299188 
L 82.69439 260.299188 
z
" style="fill:#1f77b4;"/>
   </g>
   <g id="patch_14">
    <path clip-path="url(#p2f33fc3f01)" d="M 84.317206 273.312 
L 85.940021 273.312 
L 85.940021 259.059873 
L 84.317206 259.059873 
z
" style="fill:#1f77b4;"/>
   </g>
   <g id="patch_15">
    <path clip-path="url(#p2f33fc3f01)" d="M 85.940021 273.312 
L 87.562837 273.312 
L 87.562837 257.2009 
L 85.940021 257.2009 
z
" style="fill:#1f77b4;"/>
   </g>
   <g id="patch_16">
    <path clip-path="url(#p2f33fc3f01)" d="M 87.562837 273.312 
L 89.185653 273.312 
L 89.185653 258.440215 
L 87.562837 258.440215 
z
" style="fill:#1f77b4;"/>
   </g>
   <g id="patch_17">
    <path clip-path="url(#p2f33fc3f01)" d="M 89.185653 273.312 
L 90.808469 273.312 
L 90.808469 251.004323 
L 89.185653 251.004323 
z
" style="fill:#1f77b4;"/>
   </g>
   <g id="patch_18">
    <path clip-path="url(#p2f33fc3f01)" d="M 90.808469 273.312 
L 92.431285 273.312 
L 92.431285 249.765007 
L 90.808469 249.765007 
z
" style="fill:#1f77b4;"/>
   </g>
   <g id="patch_19">
    <path clip-path="url(#p2f33fc3f01)" d="M 92.431285 273.312 
L 94.0541 273.312 
L 94.0541 248.525692 
L 92.431285 248.525692 
z
" style="fill:#1f77b4;"/>
   </g>
   <g id="patch_20">
    <path clip-path="url(#p2f33fc3f01)" d="M 94.0541 273.312 
L 95.676916 273.312 
L 95.676916 255.961584 
L 94.0541 255.961584 
z
" style="fill:#1f77b4;"/>
   </g>
   <g id="patch_21">
    <path clip-path="url(#p2f33fc3f01)" d="M 95.676916 273.312 
L 97.299732 273.312 
L 97.299732 244.188088 
L 95.676916 244.188088 
z
" style="fill:#1f77b4;"/>
   </g>
   <g id="patch_22">
    <path clip-path="url(#p2f33fc3f01)" d="M 97.299732 273.312 
L 98.922548 273.312 
L 98.922548 250.384665 
L 97.299732 250.384665 
z
" style="fill:#1f77b4;"/>
   </g>
   <g id="patch_23">
    <path clip-path="url(#p2f33fc3f01)" d="M 98.922548 273.312 
L 100.545363 273.312 
L 100.545363 252.243638 
L 98.922548 252.243638 
z
" style="fill:#1f77b4;"/>
   </g>
   <g id="patch_24">
    <path clip-path="url(#p2f33fc3f01)" d="M 100.545363 273.312 
L 102.168179 273.312 
L 102.168179 251.004323 
L 100.545363 251.004323 
z
" style="fill:#1f77b4;"/>
   </g>
   <g id="patch_25">
    <path clip-path="url(#p2f33fc3f01)" d="M 102.168179 273.312 
L 103.790995 273.312 
L 103.790995 247.286377 
L 102.168179 247.286377 
z
" style="fill:#1f77b4;"/>
   </g>
   <g id="patch_26">
    <path clip-path="url(#p2f33fc3f01)" d="M 103.790995 273.312 
L 105.413811 273.312 
L 105.413811 248.525692 
L 103.790995 248.525692 
z
" style="fill:#1f77b4;"/>
   </g>
   <g id="patch_27">
    <path clip-path="url(#p2f33fc3f01)" d="M 105.413811 273.312 
L 107.036627 273.312 
L 107.036627 245.427403 
L 105.413811 245.427403 
z
" style="fill:#1f77b4;"/>
   </g>
   <g id="patch_28">
    <path clip-path="url(#p2f33fc3f01)" d="M 107.036627 273.312 
L 108.659442 273.312 
L 108.659442 246.666719 
L 107.036627 246.666719 
z
" style="fill:#1f77b4;"/>
   </g>
   <g id="patch_29">
    <path clip-path="url(#p2f33fc3f01)" d="M 108.659442 273.312 
L 110.282258 273.312 
L 110.282258 242.948773 
L 108.659442 242.948773 
z
" style="fill:#1f77b4;"/>
   </g>
   <g id="patch_30">
    <path clip-path="url(#p2f33fc3f01)" d="M 110.282258 273.312 
L 111.905074 273.312 
L 111.905074 234.273565 
L 110.282258 234.273565 
z
" style="fill:#1f77b4;"/>
   </g>
   <g id="patch_31">
    <path clip-path="url(#p2f33fc3f01)" d="M 111.905074 273.312 
L 113.52789 273.312 
L 113.52789 233.034249 
L 111.905074 233.034249 
z
" style="fill:#1f77b4;"/>
   </g>
   <g id="patch_32">
    <path clip-path="url(#p2f33fc3f01)" d="M 113.52789 273.312 
L 115.150706 273.312 
L 115.150706 239.230826 
L 113.52789 239.230826 
z
" style="fill:#1f77b4;"/>
   </g>
   <g id="patch_33">
    <path clip-path="url(#p2f33fc3f01)" d="M 115.150706 273.312 
L 116.773521 273.312 
L 116.773521 236.132538 
L 115.150706 236.132538 
z
" style="fill:#1f77b4;"/>
   </g>
   <g id="patch_34">
    <path clip-path="url(#p2f33fc3f01)" d="M 116.773521 273.312 
L 118.396337 273.312 
L 118.396337 237.371853 
L 116.773521 237.371853 
z
" style="fill:#1f77b4;"/>
   </g>
   <g id="patch_35">
    <path clip-path="url(#p2f33fc3f01)" d="M 118.396337 273.312 
L 120.019153 273.312 
L 120.019153 234.273565 
L 118.396337 234.273565 
z
" style="fill:#1f77b4;"/>
   </g>
   <g id="patch_36">
    <path clip-path="url(#p2f33fc3f01)" d="M 120.019153 273.312 
L 121.641969 273.312 
L 121.641969 228.076988 
L 120.019153 228.076988 
z
" style="fill:#1f77b4;"/>
   </g>
   <g id="patch_37">
    <path clip-path="url(#p2f33fc3f01)" d="M 121.641969 273.312 
L 123.264784 273.312 
L 123.264784 233.034249 
L 121.641969 233.034249 
z
" style="fill:#1f77b4;"/>
   </g>
   <g id="patch_38">
    <path clip-path="url(#p2f33fc3f01)" d="M 123.264784 273.312 
L 124.8876 273.312 
L 124.8876 231.175276 
L 123.264784 231.175276 
z
" style="fill:#1f77b4;"/>
   </g>
   <g id="patch_39">
    <path clip-path="url(#p2f33fc3f01)" d="M 124.8876 273.312 
L 126.510416 273.312 
L 126.510416 229.316303 
L 124.8876 229.316303 
z
" style="fill:#1f77b4;"/>
   </g>
   <g id="patch_40">
    <path clip-path="url(#p2f33fc3f01)" d="M 126.510416 273.312 
L 128.133232 273.312 
L 128.133232 222.500068 
L 126.510416 222.500068 
z
" style="fill:#1f77b4;"/>
   </g>
   <g id="patch_41">
    <path clip-path="url(#p2f33fc3f01)" d="M 128.133232 273.312 
L 129.756048 273.312 
L 129.756048 228.076988 
L 128.133232 228.076988 
z
" style="fill:#1f77b4;"/>
   </g>
   <g id="patch_42">
    <path clip-path="url(#p2f33fc3f01)" d="M 129.756048 273.312 
L 131.378863 273.312 
L 131.378863 221.260753 
L 129.756048 221.260753 
z
" style="fill:#1f77b4;"/>
   </g>
   <g id="patch_43">
    <path clip-path="url(#p2f33fc3f01)" d="M 131.378863 273.312 
L 133.001679 273.312 
L 133.001679 221.260753 
L 131.378863 221.260753 
z
" style="fill:#1f77b4;"/>
   </g>
   <g id="patch_44">
    <path clip-path="url(#p2f33fc3f01)" d="M 133.001679 273.312 
L 134.624495 273.312 
L 134.624495 225.598357 
L 133.001679 225.598357 
z
" style="fill:#1f77b4;"/>
   </g>
   <g id="patch_45">
    <path clip-path="url(#p2f33fc3f01)" d="M 134.624495 273.312 
L 136.247311 273.312 
L 136.247311 212.585545 
L 134.624495 212.585545 
z
" style="fill:#1f77b4;"/>
   </g>
   <g id="patch_46">
    <path clip-path="url(#p2f33fc3f01)" d="M 136.247311 273.312 
L 137.870126 273.312 
L 137.870126 207.008626 
L 136.247311 207.008626 
z
" style="fill:#1f77b4;"/>
   </g>
   <g id="patch_47">
    <path clip-path="url(#p2f33fc3f01)" d="M 137.870126 273.312 
L 139.492942 273.312 
L 139.492942 213.824861 
L 137.870126 213.824861 
z
" style="fill:#1f77b4;"/>
   </g>
   <g id="patch_48">
    <path clip-path="url(#p2f33fc3f01)" d="M 139.492942 273.312 
L 141.115758 273.312 
L 141.115758 215.064176 
L 139.492942 215.064176 
z
" style="fill:#1f77b4;"/>
   </g>
   <g id="patch_49">
    <path clip-path="url(#p2f33fc3f01)" d="M 141.115758 273.312 
L 142.738574 273.312 
L 142.738574 223.119726 
L 141.115758 223.119726 
z
" style="fill:#1f77b4;"/>
   </g>
   <g id="patch_50">
    <path clip-path="url(#p2f33fc3f01)" d="M 142.738574 273.312 
L 144.36139 273.312 
L 144.36139 210.106914 
L 142.738574 210.106914 
z
" style="fill:#1f77b4;"/>
   </g>
   <g id="patch_51">
    <path clip-path="url(#p2f33fc3f01)" d="M 144.36139 273.312 
L 145.984205 273.312 
L 145.984205 205.149653 
L 144.36139 205.149653 
z
" style="fill:#1f77b4;"/>
   </g>
   <g id="patch_52">
    <path clip-path="url(#p2f33fc3f01)" d="M 145.984205 273.312 
L 147.607021 273.312 
L 147.607021 214.444518 
L 145.984205 214.444518 
z
" style="fill:#1f77b4;"/>
   </g>
   <g id="patch_53">
    <path clip-path="url(#p2f33fc3f01)" d="M 147.607021 273.312 
L 149.229837 273.312 
L 149.229837 211.965888 
L 147.607021 211.965888 
z
" style="fill:#1f77b4;"/>
   </g>
   <g id="patch_54">
    <path clip-path="url(#p2f33fc3f01)" d="M 149.229837 273.312 
L 150.852653 273.312 
L 150.852653 208.247941 
L 149.229837 208.247941 
z
" style="fill:#1f77b4;"/>
   </g>
   <g id="patch_55">
    <path clip-path="url(#p2f33fc3f01)" d="M 150.852653 273.312 
L 152.475469 273.312 
L 152.475469 205.769311 
L 150.852653 205.769311 
z
" style="fill:#1f77b4;"/>
   </g>
   <g id="patch_56">
    <path clip-path="url(#p2f33fc3f01)" d="M 152.475469 273.312 
L 154.098284 273.312 
L 154.098284 212.585545 
L 152.475469 212.585545 
z
" style="fill:#1f77b4;"/>
   </g>
   <g id="patch_57">
    <path clip-path="url(#p2f33fc3f01)" d="M 154.098284 273.312 
L 155.7211 273.312 
L 155.7211 208.867599 
L 154.098284 208.867599 
z
" style="fill:#1f77b4;"/>
   </g>
   <g id="patch_58">
    <path clip-path="url(#p2f33fc3f01)" d="M 155.7211 273.312 
L 157.343916 273.312 
L 157.343916 208.247941 
L 155.7211 208.247941 
z
" style="fill:#1f77b4;"/>
   </g>
   <g id="patch_59">
    <path clip-path="url(#p2f33fc3f01)" d="M 157.343916 273.312 
L 158.966732 273.312 
L 158.966732 204.529995 
L 157.343916 204.529995 
z
" style="fill:#1f77b4;"/>
   </g>
   <g id="patch_60">
    <path clip-path="url(#p2f33fc3f01)" d="M 158.966732 273.312 
L 160.589547 273.312 
L 160.589547 198.333418 
L 158.966732 198.333418 
z
" style="fill:#1f77b4;"/>
   </g>
   <g id="patch_61">
    <path clip-path="url(#p2f33fc3f01)" d="M 160.589547 273.312 
L 162.212363 273.312 
L 162.212363 212.585545 
L 160.589547 212.585545 
z
" style="fill:#1f77b4;"/>
   </g>
   <g id="patch_62">
    <path clip-path="url(#p2f33fc3f01)" d="M 162.212363 273.312 
L 163.835179 273.312 
L 163.835179 209.487257 
L 162.212363 209.487257 
z
" style="fill:#1f77b4;"/>
   </g>
   <g id="patch_63">
    <path clip-path="url(#p2f33fc3f01)" d="M 163.835179 273.312 
L 165.457995 273.312 
L 165.457995 213.824861 
L 163.835179 213.824861 
z
" style="fill:#1f77b4;"/>
   </g>
   <g id="patch_64">
    <path clip-path="url(#p2f33fc3f01)" d="M 165.457995 273.312 
L 167.080811 273.312 
L 167.080811 190.277868 
L 165.457995 190.277868 
z
" style="fill:#1f77b4;"/>
   </g>
   <g id="patch_65">
    <path clip-path="url(#p2f33fc3f01)" d="M 167.080811 273.312 
L 168.703626 273.312 
L 168.703626 190.897526 
L 167.080811 190.897526 
z
" style="fill:#1f77b4;"/>
   </g>
   <g id="patch_66">
    <path clip-path="url(#p2f33fc3f01)" d="M 168.703626 273.312 
L 170.326442 273.312 
L 170.326442 198.953076 
L 168.703626 198.953076 
z
" style="fill:#1f77b4;"/>
   </g>
   <g id="patch_67">
    <path clip-path="url(#p2f33fc3f01)" d="M 170.326442 273.312 
L 171.949258 273.312 
L 171.949258 190.277868 
L 170.326442 190.277868 
z
" style="fill:#1f77b4;"/>
   </g>
   <g id="patch_68">
    <path clip-path="url(#p2f33fc3f01)" d="M 171.949258 273.312 
L 173.572074 273.312 
L 173.572074 189.65821 
L 171.949258 189.65821 
z
" style="fill:#1f77b4;"/>
   </g>
   <g id="patch_69">
    <path clip-path="url(#p2f33fc3f01)" d="M 173.572074 273.312 
L 175.19489 273.312 
L 175.19489 188.418895 
L 173.572074 188.418895 
z
" style="fill:#1f77b4;"/>
   </g>
   <g id="patch_70">
    <path clip-path="url(#p2f33fc3f01)" d="M 175.19489 273.312 
L 176.817705 273.312 
L 176.817705 175.406083 
L 175.19489 175.406083 
z
" style="fill:#1f77b4;"/>
   </g>
   <g id="patch_71">
    <path clip-path="url(#p2f33fc3f01)" d="M 176.817705 273.312 
L 178.440521 273.312 
L 178.440521 192.136841 
L 176.817705 192.136841 
z
" style="fill:#1f77b4;"/>
   </g>
   <g id="patch_72">
    <path clip-path="url(#p2f33fc3f01)" d="M 178.440521 273.312 
L 180.063337 273.312 
L 180.063337 188.418895 
L 178.440521 188.418895 
z
" style="fill:#1f77b4;"/>
   </g>
   <g id="patch_73">
    <path clip-path="url(#p2f33fc3f01)" d="M 180.063337 273.312 
L 181.686153 273.312 
L 181.686153 193.995814 
L 180.063337 193.995814 
z
" style="fill:#1f77b4;"/>
   </g>
   <g id="patch_74">
    <path clip-path="url(#p2f33fc3f01)" d="M 181.686153 273.312 
L 183.308968 273.312 
L 183.308968 187.799237 
L 181.686153 187.799237 
z
" style="fill:#1f77b4;"/>
   </g>
   <g id="patch_75">
    <path clip-path="url(#p2f33fc3f01)" d="M 183.308968 273.312 
L 184.931784 273.312 
L 184.931784 180.363345 
L 183.308968 180.363345 
z
" style="fill:#1f77b4;"/>
   </g>
   <g id="patch_76">
    <path clip-path="url(#p2f33fc3f01)" d="M 184.931784 273.312 
L 186.5546 273.312 
L 186.5546 179.743687 
L 184.931784 179.743687 
z
" style="fill:#1f77b4;"/>
   </g>
   <g id="patch_77">
    <path clip-path="url(#p2f33fc3f01)" d="M 186.5546 273.312 
L 188.177416 273.312 
L 188.177416 185.940264 
L 186.5546 185.940264 
z
" style="fill:#1f77b4;"/>
   </g>
   <g id="patch_78">
    <path clip-path="url(#p2f33fc3f01)" d="M 188.177416 273.312 
L 189.800232 273.312 
L 189.800232 182.222318 
L 188.177416 182.222318 
z
" style="fill:#1f77b4;"/>
   </g>
   <g id="patch_79">
    <path clip-path="url(#p2f33fc3f01)" d="M 189.800232 273.312 
L 191.423047 273.312 
L 191.423047 181.60266 
L 189.800232 181.60266 
z
" style="fill:#1f77b4;"/>
   </g>
   <g id="patch_80">
    <path clip-path="url(#p2f33fc3f01)" d="M 191.423047 273.312 
L 193.045863 273.312 
L 193.045863 175.406083 
L 191.423047 175.406083 
z
" style="fill:#1f77b4;"/>
   </g>
   <g id="patch_81">
    <path clip-path="url(#p2f33fc3f01)" d="M 193.045863 273.312 
L 194.668679 273.312 
L 194.668679 164.871902 
L 193.045863 164.871902 
z
" style="fill:#1f77b4;"/>
   </g>
   <g id="patch_82">
    <path clip-path="url(#p2f33fc3f01)" d="M 194.668679 273.312 
L 196.291495 273.312 
L 196.291495 179.124029 
L 194.668679 179.124029 
z
" style="fill:#1f77b4;"/>
   </g>
   <g id="patch_83">
    <path clip-path="url(#p2f33fc3f01)" d="M 196.291495 273.312 
L 197.914311 273.312 
L 197.914311 177.884714 
L 196.291495 177.884714 
z
" style="fill:#1f77b4;"/>
   </g>
   <g id="patch_84">
    <path clip-path="url(#p2f33fc3f01)" d="M 197.914311 273.312 
L 199.537126 273.312 
L 199.537126 165.49156 
L 197.914311 165.49156 
z
" style="fill:#1f77b4;"/>
   </g>
   <g id="patch_85">
    <path clip-path="url(#p2f33fc3f01)" d="M 199.537126 273.312 
L 201.159942 273.312 
L 201.159942 169.209506 
L 199.537126 169.209506 
z
" style="fill:#1f77b4;"/>
   </g>
   <g id="patch_86">
    <path clip-path="url(#p2f33fc3f01)" d="M 201.159942 273.312 
L 202.782758 273.312 
L 202.782758 154.337721 
L 201.159942 154.337721 
z
" style="fill:#1f77b4;"/>
   </g>
   <g id="patch_87">
    <path clip-path="url(#p2f33fc3f01)" d="M 202.782758 273.312 
L 204.405574 273.312 
L 204.405574 156.816352 
L 202.782758 156.816352 
z
" style="fill:#1f77b4;"/>
   </g>
   <g id="patch_88">
    <path clip-path="url(#p2f33fc3f01)" d="M 204.405574 273.312 
L 206.028389 273.312 
L 206.028389 162.393271 
L 204.405574 162.393271 
z
" style="fill:#1f77b4;"/>
   </g>
   <g id="patch_89">
    <path clip-path="url(#p2f33fc3f01)" d="M 206.028389 273.312 
L 207.651205 273.312 
L 207.651205 147.521487 
L 206.028389 147.521487 
z
" style="fill:#1f77b4;"/>
   </g>
   <g id="patch_90">
    <path clip-path="url(#p2f33fc3f01)" d="M 207.651205 273.312 
L 209.274021 273.312 
L 209.274021 174.786425 
L 207.651205 174.786425 
z
" style="fill:#1f77b4;"/>
   </g>
   <g id="patch_91">
    <path clip-path="url(#p2f33fc3f01)" d="M 209.274021 273.312 
L 210.896837 273.312 
L 210.896837 174.166768 
L 209.274021 174.166768 
z
" style="fill:#1f77b4;"/>
   </g>
   <g id="patch_92">
    <path clip-path="url(#p2f33fc3f01)" d="M 210.896837 273.312 
L 212.519653 273.312 
L 212.519653 145.662513 
L 210.896837 145.662513 
z
" style="fill:#1f77b4;"/>
   </g>
   <g id="patch_93">
    <path clip-path="url(#p2f33fc3f01)" d="M 212.519653 273.312 
L 214.142468 273.312 
L 214.142468 163.632587 
L 212.519653 163.632587 
z
" style="fill:#1f77b4;"/>
   </g>
   <g id="patch_94">
    <path clip-path="url(#p2f33fc3f01)" d="M 214.142468 273.312 
L 215.765284 273.312 
L 215.765284 159.294983 
L 214.142468 159.294983 
z
" style="fill:#1f77b4;"/>
   </g>
   <g id="patch_95">
    <path clip-path="url(#p2f33fc3f01)" d="M 215.765284 273.312 
L 217.3881 273.312 
L 217.3881 170.448822 
L 215.765284 170.448822 
z
" style="fill:#1f77b4;"/>
   </g>
   <g id="patch_96">
    <path clip-path="url(#p2f33fc3f01)" d="M 217.3881 273.312 
L 219.010916 273.312 
L 219.010916 150.619775 
L 217.3881 150.619775 
z
" style="fill:#1f77b4;"/>
   </g>
   <g id="patch_97">
    <path clip-path="url(#p2f33fc3f01)" d="M 219.010916 273.312 
L 220.633732 273.312 
L 220.633732 160.534298 
L 219.010916 160.534298 
z
" style="fill:#1f77b4;"/>
   </g>
   <g id="patch_98">
    <path clip-path="url(#p2f33fc3f01)" d="M 220.633732 273.312 
L 222.256547 273.312 
L 222.256547 149.38046 
L 220.633732 149.38046 
z
" style="fill:#1f77b4;"/>
   </g>
   <g id="patch_99">
    <path clip-path="url(#p2f33fc3f01)" d="M 222.256547 273.312 
L 223.879363 273.312 
L 223.879363 154.957379 
L 222.256547 154.957379 
z
" style="fill:#1f77b4;"/>
   </g>
   <g id="patch_100">
    <path clip-path="url(#p2f33fc3f01)" d="M 223.879363 273.312 
L 225.502179 273.312 
L 225.502179 141.944567 
L 223.879363 141.944567 
z
" style="fill:#1f77b4;"/>
   </g>
   <g id="patch_101">
    <path clip-path="url(#p2f33fc3f01)" d="M 225.502179 273.312 
L 227.124995 273.312 
L 227.124995 159.294983 
L 225.502179 159.294983 
z
" style="fill:#1f77b4;"/>
   </g>
   <g id="patch_102">
    <path clip-path="url(#p2f33fc3f01)" d="M 227.124995 273.312 
L 228.74781 273.312 
L 228.74781 145.042856 
L 227.124995 145.042856 
z
" style="fill:#1f77b4;"/>
   </g>
   <g id="patch_103">
    <path clip-path="url(#p2f33fc3f01)" d="M 228.74781 273.312 
L 230.370626 273.312 
L 230.370626 150.000117 
L 228.74781 150.000117 
z
" style="fill:#1f77b4;"/>
   </g>
   <g id="patch_104">
    <path clip-path="url(#p2f33fc3f01)" d="M 230.370626 273.312 
L 231.993442 273.312 
L 231.993442 131.410386 
L 230.370626 131.410386 
z
" style="fill:#1f77b4;"/>
   </g>
   <g id="patch_105">
    <path clip-path="url(#p2f33fc3f01)" d="M 231.993442 273.312 
L 233.616258 273.312 
L 233.616258 150.000117 
L 231.993442 150.000117 
z
" style="fill:#1f77b4;"/>
   </g>
   <g id="patch_106">
    <path clip-path="url(#p2f33fc3f01)" d="M 233.616258 273.312 
L 235.239074 273.312 
L 235.239074 145.042856 
L 233.616258 145.042856 
z
" style="fill:#1f77b4;"/>
   </g>
   <g id="patch_107">
    <path clip-path="url(#p2f33fc3f01)" d="M 235.239074 273.312 
L 236.861889 273.312 
L 236.861889 150.619775 
L 235.239074 150.619775 
z
" style="fill:#1f77b4;"/>
   </g>
   <g id="patch_108">
    <path clip-path="url(#p2f33fc3f01)" d="M 236.861889 273.312 
L 238.484705 273.312 
L 238.484705 142.564225 
L 236.861889 142.564225 
z
" style="fill:#1f77b4;"/>
   </g>
   <g id="patch_109">
    <path clip-path="url(#p2f33fc3f01)" d="M 238.484705 273.312 
L 240.107521 273.312 
L 240.107521 135.74799 
L 238.484705 135.74799 
z
" style="fill:#1f77b4;"/>
   </g>
   <g id="patch_110">
    <path clip-path="url(#p2f33fc3f01)" d="M 240.107521 273.312 
L 241.730337 273.312 
L 241.730337 122.115521 
L 240.107521 122.115521 
z
" style="fill:#1f77b4;"/>
   </g>
   <g id="patch_111">
    <path clip-path="url(#p2f33fc3f01)" d="M 241.730337 273.312 
L 243.353153 273.312 
L 243.353153 145.042856 
L 241.730337 145.042856 
z
" style="fill:#1f77b4;"/>
   </g>
   <g id="patch_112">
    <path clip-path="url(#p2f33fc3f01)" d="M 243.353153 273.312 
L 244.975968 273.312 
L 244.975968 139.465936 
L 243.353153 139.465936 
z
" style="fill:#1f77b4;"/>
   </g>
   <g id="patch_113">
    <path clip-path="url(#p2f33fc3f01)" d="M 244.975968 273.312 
L 246.598784 273.312 
L 246.598784 117.777917 
L 244.975968 117.777917 
z
" style="fill:#1f77b4;"/>
   </g>
   <g id="patch_114">
    <path clip-path="url(#p2f33fc3f01)" d="M 246.598784 273.312 
L 248.2216 273.312 
L 248.2216 127.69244 
L 246.598784 127.69244 
z
" style="fill:#1f77b4;"/>
   </g>
   <g id="patch_115">
    <path clip-path="url(#p2f33fc3f01)" d="M 248.2216 273.312 
L 249.844416 273.312 
L 249.844416 145.662513 
L 248.2216 145.662513 
z
" style="fill:#1f77b4;"/>
   </g>
   <g id="patch_116">
    <path clip-path="url(#p2f33fc3f01)" d="M 249.844416 273.312 
L 251.467231 273.312 
L 251.467231 126.453125 
L 249.844416 126.453125 
z
" style="fill:#1f77b4;"/>
   </g>
   <g id="patch_117">
    <path clip-path="url(#p2f33fc3f01)" d="M 251.467231 273.312 
L 253.090047 273.312 
L 253.090047 132.030044 
L 251.467231 132.030044 
z
" style="fill:#1f77b4;"/>
   </g>
   <g id="patch_118">
    <path clip-path="url(#p2f33fc3f01)" d="M 253.090047 273.312 
L 254.712863 273.312 
L 254.712863 137.606963 
L 253.090047 137.606963 
z
" style="fill:#1f77b4;"/>
   </g>
   <g id="patch_119">
    <path clip-path="url(#p2f33fc3f01)" d="M 254.712863 273.312 
L 256.335679 273.312 
L 256.335679 137.606963 
L 254.712863 137.606963 
z
" style="fill:#1f77b4;"/>
   </g>
   <g id="patch_120">
    <path clip-path="url(#p2f33fc3f01)" d="M 256.335679 273.312 
L 257.958495 273.312 
L 257.958495 126.453125 
L 256.335679 126.453125 
z
" style="fill:#1f77b4;"/>
   </g>
   <g id="patch_121">
    <path clip-path="url(#p2f33fc3f01)" d="M 257.958495 273.312 
L 259.58131 273.312 
L 259.58131 123.354836 
L 257.958495 123.354836 
z
" style="fill:#1f77b4;"/>
   </g>
   <g id="patch_122">
    <path clip-path="url(#p2f33fc3f01)" d="M 259.58131 273.312 
L 261.204126 273.312 
L 261.204126 112.820655 
L 259.58131 112.820655 
z
" style="fill:#1f77b4;"/>
   </g>
   <g id="patch_123">
    <path clip-path="url(#p2f33fc3f01)" d="M 261.204126 273.312 
L 262.826942 273.312 
L 262.826942 128.931756 
L 261.204126 128.931756 
z
" style="fill:#1f77b4;"/>
   </g>
   <g id="patch_124">
    <path clip-path="url(#p2f33fc3f01)" d="M 262.826942 273.312 
L 264.449758 273.312 
L 264.449758 133.889017 
L 262.826942 133.889017 
z
" style="fill:#1f77b4;"/>
   </g>
   <g id="patch_125">
    <path clip-path="url(#p2f33fc3f01)" d="M 264.449758 273.312 
L 266.072574 273.312 
L 266.072574 132.649702 
L 264.449758 132.649702 
z
" style="fill:#1f77b4;"/>
   </g>
   <g id="patch_126">
    <path clip-path="url(#p2f33fc3f01)" d="M 266.072574 273.312 
L 267.695389 273.312 
L 267.695389 110.342024 
L 266.072574 110.342024 
z
" style="fill:#1f77b4;"/>
   </g>
   <g id="patch_127">
    <path clip-path="url(#p2f33fc3f01)" d="M 267.695389 273.312 
L 269.318205 273.312 
L 269.318205 109.722367 
L 267.695389 109.722367 
z
" style="fill:#1f77b4;"/>
   </g>
   <g id="patch_128">
    <path clip-path="url(#p2f33fc3f01)" d="M 269.318205 273.312 
L 270.941021 273.312 
L 270.941021 125.213809 
L 269.318205 125.213809 
z
" style="fill:#1f77b4;"/>
   </g>
   <g id="patch_129">
    <path clip-path="url(#p2f33fc3f01)" d="M 270.941021 273.312 
L 272.563837 273.312 
L 272.563837 122.115521 
L 270.941021 122.115521 
z
" style="fill:#1f77b4;"/>
   </g>
   <g id="patch_130">
    <path clip-path="url(#p2f33fc3f01)" d="M 272.563837 273.312 
L 274.186652 273.312 
L 274.186652 116.538601 
L 272.563837 116.538601 
z
" style="fill:#1f77b4;"/>
   </g>
   <g id="patch_131">
    <path clip-path="url(#p2f33fc3f01)" d="M 274.186652 273.312 
L 275.809468 273.312 
L 275.809468 109.722367 
L 274.186652 109.722367 
z
" style="fill:#1f77b4;"/>
   </g>
   <g id="patch_132">
    <path clip-path="url(#p2f33fc3f01)" d="M 275.809468 273.312 
L 277.432284 273.312 
L 277.432284 99.188186 
L 275.809468 99.188186 
z
" style="fill:#1f77b4;"/>
   </g>
   <g id="patch_133">
    <path clip-path="url(#p2f33fc3f01)" d="M 277.432284 273.312 
L 279.0551 273.312 
L 279.0551 110.961682 
L 277.432284 110.961682 
z
" style="fill:#1f77b4;"/>
   </g>
   <g id="patch_134">
    <path clip-path="url(#p2f33fc3f01)" d="M 279.0551 273.312 
L 280.677916 273.312 
L 280.677916 102.906132 
L 279.0551 102.906132 
z
" style="fill:#1f77b4;"/>
   </g>
   <g id="patch_135">
    <path clip-path="url(#p2f33fc3f01)" d="M 280.677916 273.312 
L 282.300731 273.312 
L 282.300731 107.243736 
L 280.677916 107.243736 
z
" style="fill:#1f77b4;"/>
   </g>
   <g id="patch_136">
    <path clip-path="url(#p2f33fc3f01)" d="M 282.300731 273.312 
L 283.923547 273.312 
L 283.923547 111.58134 
L 282.300731 111.58134 
z
" style="fill:#1f77b4;"/>
   </g>
   <g id="patch_137">
    <path clip-path="url(#p2f33fc3f01)" d="M 283.923547 273.312 
L 285.546363 273.312 
L 285.546363 95.47024 
L 283.923547 95.47024 
z
" style="fill:#1f77b4;"/>
   </g>
   <g id="patch_138">
    <path clip-path="url(#p2f33fc3f01)" d="M 285.546363 273.312 
L 287.169179 273.312 
L 287.169179 119.017232 
L 285.546363 119.017232 
z
" style="fill:#1f77b4;"/>
   </g>
   <g id="patch_139">
    <path clip-path="url(#p2f33fc3f01)" d="M 287.169179 273.312 
L 288.791994 273.312 
L 288.791994 97.329213 
L 287.169179 97.329213 
z
" style="fill:#1f77b4;"/>
   </g>
   <g id="patch_140">
    <path clip-path="url(#p2f33fc3f01)" d="M 288.791994 273.312 
L 290.41481 273.312 
L 290.41481 94.230924 
L 288.791994 94.230924 
z
" style="fill:#1f77b4;"/>
   </g>
   <g id="patch_141">
    <path clip-path="url(#p2f33fc3f01)" d="M 290.41481 273.312 
L 292.037626 273.312 
L 292.037626 93.611267 
L 290.41481 93.611267 
z
" style="fill:#1f77b4;"/>
   </g>
   <g id="patch_142">
    <path clip-path="url(#p2f33fc3f01)" d="M 292.037626 273.312 
L 293.660442 273.312 
L 293.660442 120.256548 
L 292.037626 120.256548 
z
" style="fill:#1f77b4;"/>
   </g>
   <g id="patch_143">
    <path clip-path="url(#p2f33fc3f01)" d="M 293.660442 273.312 
L 295.283258 273.312 
L 295.283258 110.961682 
L 293.660442 110.961682 
z
" style="fill:#1f77b4;"/>
   </g>
   <g id="patch_144">
    <path clip-path="url(#p2f33fc3f01)" d="M 295.283258 273.312 
L 296.906073 273.312 
L 296.906073 94.850582 
L 295.283258 94.850582 
z
" style="fill:#1f77b4;"/>
   </g>
   <g id="patch_145">
    <path clip-path="url(#p2f33fc3f01)" d="M 296.906073 273.312 
L 298.528889 273.312 
L 298.528889 82.457428 
L 296.906073 82.457428 
z
" style="fill:#1f77b4;"/>
   </g>
   <g id="patch_146">
    <path clip-path="url(#p2f33fc3f01)" d="M 298.528889 273.312 
L 300.151705 273.312 
L 300.151705 102.286474 
L 298.528889 102.286474 
z
" style="fill:#1f77b4;"/>
   </g>
   <g id="patch_147">
    <path clip-path="url(#p2f33fc3f01)" d="M 300.151705 273.312 
L 301.774521 273.312 
L 301.774521 97.94887 
L 300.151705 97.94887 
z
" style="fill:#1f77b4;"/>
   </g>
   <g id="patch_148">
    <path clip-path="url(#p2f33fc3f01)" d="M 301.774521 273.312 
L 303.397337 273.312 
L 303.397337 79.978797 
L 301.774521 79.978797 
z
" style="fill:#1f77b4;"/>
   </g>
   <g id="patch_149">
    <path clip-path="url(#p2f33fc3f01)" d="M 303.397337 273.312 
L 305.020152 273.312 
L 305.020152 102.286474 
L 303.397337 102.286474 
z
" style="fill:#1f77b4;"/>
   </g>
   <g id="patch_150">
    <path clip-path="url(#p2f33fc3f01)" d="M 305.020152 273.312 
L 306.642968 273.312 
L 306.642968 106.004421 
L 305.020152 106.004421 
z
" style="fill:#1f77b4;"/>
   </g>
   <g id="patch_151">
    <path clip-path="url(#p2f33fc3f01)" d="M 306.642968 273.312 
L 308.265784 273.312 
L 308.265784 91.752293 
L 306.642968 91.752293 
z
" style="fill:#1f77b4;"/>
   </g>
   <g id="patch_152">
    <path clip-path="url(#p2f33fc3f01)" d="M 308.265784 273.312 
L 309.8886 273.312 
L 309.8886 92.371951 
L 308.265784 92.371951 
z
" style="fill:#1f77b4;"/>
   </g>
   <g id="patch_153">
    <path clip-path="url(#p2f33fc3f01)" d="M 309.8886 273.312 
L 311.511415 273.312 
L 311.511415 80.598455 
L 309.8886 80.598455 
z
" style="fill:#1f77b4;"/>
   </g>
   <g id="patch_154">
    <path clip-path="url(#p2f33fc3f01)" d="M 311.511415 273.312 
L 313.134231 273.312 
L 313.134231 79.359139 
L 311.511415 79.359139 
z
" style="fill:#1f77b4;"/>
   </g>
   <g id="patch_155">
    <path clip-path="url(#p2f33fc3f01)" d="M 313.134231 273.312 
L 314.757047 273.312 
L 314.757047 80.598455 
L 313.134231 80.598455 
z
" style="fill:#1f77b4;"/>
   </g>
   <g id="patch_156">
    <path clip-path="url(#p2f33fc3f01)" d="M 314.757047 273.312 
L 316.379863 273.312 
L 316.379863 76.260851 
L 314.757047 76.260851 
z
" style="fill:#1f77b4;"/>
   </g>
   <g id="patch_157">
    <path clip-path="url(#p2f33fc3f01)" d="M 316.379863 273.312 
L 318.002679 273.312 
L 318.002679 89.89332 
L 316.379863 89.89332 
z
" style="fill:#1f77b4;"/>
   </g>
   <g id="patch_158">
    <path clip-path="url(#p2f33fc3f01)" d="M 318.002679 273.312 
L 319.625494 273.312 
L 319.625494 102.286474 
L 318.002679 102.286474 
z
" style="fill:#1f77b4;"/>
   </g>
   <g id="patch_159">
    <path clip-path="url(#p2f33fc3f01)" d="M 319.625494 273.312 
L 321.24831 273.312 
L 321.24831 92.991609 
L 319.625494 92.991609 
z
" style="fill:#1f77b4;"/>
   </g>
   <g id="patch_160">
    <path clip-path="url(#p2f33fc3f01)" d="M 321.24831 273.312 
L 322.871126 273.312 
L 322.871126 70.683932 
L 321.24831 70.683932 
z
" style="fill:#1f77b4;"/>
   </g>
   <g id="patch_161">
    <path clip-path="url(#p2f33fc3f01)" d="M 322.871126 273.312 
L 324.493942 273.312 
L 324.493942 75.641193 
L 322.871126 75.641193 
z
" style="fill:#1f77b4;"/>
   </g>
   <g id="patch_162">
    <path clip-path="url(#p2f33fc3f01)" d="M 324.493942 273.312 
L 326.116758 273.312 
L 326.116758 78.739482 
L 324.493942 78.739482 
z
" style="fill:#1f77b4;"/>
   </g>
   <g id="patch_163">
    <path clip-path="url(#p2f33fc3f01)" d="M 326.116758 273.312 
L 327.739573 273.312 
L 327.739573 91.132636 
L 326.116758 91.132636 
z
" style="fill:#1f77b4;"/>
   </g>
   <g id="patch_164">
    <path clip-path="url(#p2f33fc3f01)" d="M 327.739573 273.312 
L 329.362389 273.312 
L 329.362389 75.021535 
L 327.739573 75.021535 
z
" style="fill:#1f77b4;"/>
   </g>
   <g id="patch_165">
    <path clip-path="url(#p2f33fc3f01)" d="M 329.362389 273.312 
L 330.985205 273.312 
L 330.985205 79.359139 
L 329.362389 79.359139 
z
" style="fill:#1f77b4;"/>
   </g>
   <g id="patch_166">
    <path clip-path="url(#p2f33fc3f01)" d="M 330.985205 273.312 
L 332.608021 273.312 
L 332.608021 85.555716 
L 330.985205 85.555716 
z
" style="fill:#1f77b4;"/>
   </g>
   <g id="patch_167">
    <path clip-path="url(#p2f33fc3f01)" d="M 332.608021 273.312 
L 334.230836 273.312 
L 334.230836 54.572831 
L 332.608021 54.572831 
z
" style="fill:#1f77b4;"/>
   </g>
   <g id="patch_168">
    <path clip-path="url(#p2f33fc3f01)" d="M 334.230836 273.312 
L 335.853652 273.312 
L 335.853652 75.021535 
L 334.230836 75.021535 
z
" style="fill:#1f77b4;"/>
   </g>
   <g id="patch_169">
    <path clip-path="url(#p2f33fc3f01)" d="M 335.853652 273.312 
L 337.476468 273.312 
L 337.476468 53.333516 
L 335.853652 53.333516 
z
" style="fill:#1f77b4;"/>
   </g>
   <g id="patch_170">
    <path clip-path="url(#p2f33fc3f01)" d="M 337.476468 273.312 
L 339.099284 273.312 
L 339.099284 71.923247 
L 337.476468 71.923247 
z
" style="fill:#1f77b4;"/>
   </g>
   <g id="patch_171">
    <path clip-path="url(#p2f33fc3f01)" d="M 339.099284 273.312 
L 340.7221 273.312 
L 340.7221 63.867697 
L 339.099284 63.867697 
z
" style="fill:#1f77b4;"/>
   </g>
   <g id="patch_172">
    <path clip-path="url(#p2f33fc3f01)" d="M 340.7221 273.312 
L 342.344915 273.312 
L 342.344915 63.867697 
L 340.7221 63.867697 
z
" style="fill:#1f77b4;"/>
   </g>
   <g id="patch_173">
    <path clip-path="url(#p2f33fc3f01)" d="M 342.344915 273.312 
L 343.967731 273.312 
L 343.967731 73.162562 
L 342.344915 73.162562 
z
" style="fill:#1f77b4;"/>
   </g>
   <g id="patch_174">
    <path clip-path="url(#p2f33fc3f01)" d="M 343.967731 273.312 
L 345.590547 273.312 
L 345.590547 70.683932 
L 343.967731 70.683932 
z
" style="fill:#1f77b4;"/>
   </g>
   <g id="patch_175">
    <path clip-path="url(#p2f33fc3f01)" d="M 345.590547 273.312 
L 347.213363 273.312 
L 347.213363 55.812147 
L 345.590547 55.812147 
z
" style="fill:#1f77b4;"/>
   </g>
   <g id="patch_176">
    <path clip-path="url(#p2f33fc3f01)" d="M 347.213363 273.312 
L 348.836179 273.312 
L 348.836179 44.658308 
L 347.213363 44.658308 
z
" style="fill:#1f77b4;"/>
   </g>
   <g id="patch_177">
    <path clip-path="url(#p2f33fc3f01)" d="M 348.836179 273.312 
L 350.458994 273.312 
L 350.458994 47.136939 
L 348.836179 47.136939 
z
" style="fill:#1f77b4;"/>
   </g>
   <g id="patch_178">
    <path clip-path="url(#p2f33fc3f01)" d="M 350.458994 273.312 
L 352.08181 273.312 
L 352.08181 27.92755 
L 350.458994 27.92755 
z
" style="fill:#1f77b4;"/>
   </g>
   <g id="patch_179">
    <path clip-path="url(#p2f33fc3f01)" d="M 352.08181 273.312 
L 353.704626 273.312 
L 353.704626 44.03865 
L 352.08181 44.03865 
z
" style="fill:#1f77b4;"/>
   </g>
   <g id="patch_180">
    <path clip-path="url(#p2f33fc3f01)" d="M 353.704626 273.312 
L 355.327442 273.312 
L 355.327442 40.320704 
L 353.704626 40.320704 
z
" style="fill:#1f77b4;"/>
   </g>
   <g id="patch_181">
    <path clip-path="url(#p2f33fc3f01)" d="M 355.327442 273.312 
L 356.950257 273.312 
L 356.950257 52.0942 
L 355.327442 52.0942 
z
" style="fill:#1f77b4;"/>
   </g>
   <g id="patch_182">
    <path clip-path="url(#p2f33fc3f01)" d="M 356.950257 273.312 
L 358.573073 273.312 
L 358.573073 76.880509 
L 356.950257 76.880509 
z
" style="fill:#1f77b4;"/>
   </g>
   <g id="patch_183">
    <path clip-path="url(#p2f33fc3f01)" d="M 358.573073 273.312 
L 360.195889 273.312 
L 360.195889 35.363443 
L 358.573073 35.363443 
z
" style="fill:#1f77b4;"/>
   </g>
   <g id="patch_184">
    <path clip-path="url(#p2f33fc3f01)" d="M 360.195889 273.312 
L 361.818705 273.312 
L 361.818705 38.461731 
L 360.195889 38.461731 
z
" style="fill:#1f77b4;"/>
   </g>
   <g id="patch_185">
    <path clip-path="url(#p2f33fc3f01)" d="M 361.818705 273.312 
L 363.441521 273.312 
L 363.441521 55.192489 
L 361.818705 55.192489 
z
" style="fill:#1f77b4;"/>
   </g>
   <g id="patch_186">
    <path clip-path="url(#p2f33fc3f01)" d="M 363.441521 273.312 
L 365.064336 273.312 
L 365.064336 40.320704 
L 363.441521 40.320704 
z
" style="fill:#1f77b4;"/>
   </g>
   <g id="patch_187">
    <path clip-path="url(#p2f33fc3f01)" d="M 365.064336 273.312 
L 366.687152 273.312 
L 366.687152 46.517281 
L 365.064336 46.517281 
z
" style="fill:#1f77b4;"/>
   </g>
   <g id="patch_188">
    <path clip-path="url(#p2f33fc3f01)" d="M 366.687152 273.312 
L 368.309968 273.312 
L 368.309968 53.333516 
L 366.687152 53.333516 
z
" style="fill:#1f77b4;"/>
   </g>
   <g id="patch_189">
    <path clip-path="url(#p2f33fc3f01)" d="M 368.309968 273.312 
L 369.932784 273.312 
L 369.932784 48.995912 
L 368.309968 48.995912 
z
" style="fill:#1f77b4;"/>
   </g>
   <g id="patch_190">
    <path clip-path="url(#p2f33fc3f01)" d="M 369.932784 273.312 
L 371.5556 273.312 
L 371.5556 37.842073 
L 369.932784 37.842073 
z
" style="fill:#1f77b4;"/>
   </g>
   <g id="patch_191">
    <path clip-path="url(#p2f33fc3f01)" d="M 371.5556 273.312 
L 373.178415 273.312 
L 373.178415 23.589946 
L 371.5556 23.589946 
z
" style="fill:#1f77b4;"/>
   </g>
   <g id="patch_192">
    <path clip-path="url(#p2f33fc3f01)" d="M 373.178415 273.312 
L 374.801231 273.312 
L 374.801231 40.320704 
L 373.178415 40.320704 
z
" style="fill:#1f77b4;"/>
   </g>
   <g id="patch_193">
    <path clip-path="url(#p2f33fc3f01)" d="M 374.801231 273.312 
L 376.424047 273.312 
L 376.424047 48.376254 
L 374.801231 48.376254 
z
" style="fill:#1f77b4;"/>
   </g>
   <g id="patch_194">
    <path clip-path="url(#p2f33fc3f01)" d="M 376.424047 273.312 
L 378.046863 273.312 
L 378.046863 45.897623 
L 376.424047 45.897623 
z
" style="fill:#1f77b4;"/>
   </g>
   <g id="patch_195">
    <path clip-path="url(#p2f33fc3f01)" d="M 378.046863 273.312 
L 379.669678 273.312 
L 379.669678 20.491658 
L 378.046863 20.491658 
z
" style="fill:#1f77b4;"/>
   </g>
   <g id="patch_196">
    <path clip-path="url(#p2f33fc3f01)" d="M 379.669678 273.312 
L 381.292494 273.312 
L 381.292494 56.431804 
L 379.669678 56.431804 
z
" style="fill:#1f77b4;"/>
   </g>
   <g id="patch_197">
    <path clip-path="url(#p2f33fc3f01)" d="M 381.292494 273.312 
L 382.91531 273.312 
L 382.91531 29.166866 
L 381.292494 29.166866 
z
" style="fill:#1f77b4;"/>
   </g>
   <g id="patch_198">
    <path clip-path="url(#p2f33fc3f01)" d="M 382.91531 273.312 
L 384.538126 273.312 
L 384.538126 36.602758 
L 382.91531 36.602758 
z
" style="fill:#1f77b4;"/>
   </g>
   <g id="patch_199">
    <path clip-path="url(#p2f33fc3f01)" d="M 384.538126 273.312 
L 386.160942 273.312 
L 386.160942 46.517281 
L 384.538126 46.517281 
z
" style="fill:#1f77b4;"/>
   </g>
   <g id="patch_200">
    <path clip-path="url(#p2f33fc3f01)" d="M 386.160942 273.312 
L 387.783757 273.312 
L 387.783757 53.333516 
L 386.160942 53.333516 
z
" style="fill:#1f77b4;"/>
   </g>
   <g id="patch_201">
    <path clip-path="url(#p2f33fc3f01)" d="M 387.783757 273.312 
L 389.406573 273.312 
L 389.406573 40.940362 
L 387.783757 40.940362 
z
" style="fill:#1f77b4;"/>
   </g>
   <g id="patch_202">
    <path clip-path="url(#p2f33fc3f01)" d="M 389.406573 273.312 
L 391.029389 273.312 
L 391.029389 19.872 
L 389.406573 19.872 
z
" style="fill:#1f77b4;"/>
   </g>
   <g id="matplotlib.axis_1">
    <g id="xtick_1">
     <g id="line2d_1">
      <defs>
       <path d="M 0 0 
L 0 3.5 
" id="maaa14e6ced" style="stroke:#000000;stroke-width:0.8;"/>
      </defs>
      <g>
       <use style="stroke:#000000;stroke-width:0.8;" x="66.376477" xlink:href="#maaa14e6ced" y="273.312"/>
      </g>
     </g>
     <g id="text_1">
      <!-- 0.0 -->
      <g transform="translate(58.424915 287.910437)scale(0.1 -0.1)">
       <defs>
        <path d="M 2034 4250 
Q 1547 4250 1301 3770 
Q 1056 3291 1056 2328 
Q 1056 1369 1301 889 
Q 1547 409 2034 409 
Q 2525 409 2770 889 
Q 3016 1369 3016 2328 
Q 3016 3291 2770 3770 
Q 2525 4250 2034 4250 
z
M 2034 4750 
Q 2819 4750 3233 4129 
Q 3647 3509 3647 2328 
Q 3647 1150 3233 529 
Q 2819 -91 2034 -91 
Q 1250 -91 836 529 
Q 422 1150 422 2328 
Q 422 3509 836 4129 
Q 1250 4750 2034 4750 
z
" id="DejaVuSans-30" transform="scale(0.015625)"/>
        <path d="M 684 794 
L 1344 794 
L 1344 0 
L 684 0 
L 684 794 
z
" id="DejaVuSans-2e" transform="scale(0.015625)"/>
       </defs>
       <use xlink:href="#DejaVuSans-30"/>
       <use x="63.623047" xlink:href="#DejaVuSans-2e"/>
       <use x="95.410156" xlink:href="#DejaVuSans-30"/>
      </g>
     </g>
    </g>
    <g id="xtick_2">
     <g id="line2d_2">
      <g>
       <use style="stroke:#000000;stroke-width:0.8;" x="131.307386" xlink:href="#maaa14e6ced" y="273.312"/>
      </g>
     </g>
     <g id="text_2">
      <!-- 0.2 -->
      <g transform="translate(123.355824 287.910437)scale(0.1 -0.1)">
       <defs>
        <path d="M 1228 531 
L 3431 531 
L 3431 0 
L 469 0 
L 469 531 
Q 828 903 1448 1529 
Q 2069 2156 2228 2338 
Q 2531 2678 2651 2914 
Q 2772 3150 2772 3378 
Q 2772 3750 2511 3984 
Q 2250 4219 1831 4219 
Q 1534 4219 1204 4116 
Q 875 4013 500 3803 
L 500 4441 
Q 881 4594 1212 4672 
Q 1544 4750 1819 4750 
Q 2544 4750 2975 4387 
Q 3406 4025 3406 3419 
Q 3406 3131 3298 2873 
Q 3191 2616 2906 2266 
Q 2828 2175 2409 1742 
Q 1991 1309 1228 531 
z
" id="DejaVuSans-32" transform="scale(0.015625)"/>
       </defs>
       <use xlink:href="#DejaVuSans-30"/>
       <use x="63.623047" xlink:href="#DejaVuSans-2e"/>
       <use x="95.410156" xlink:href="#DejaVuSans-32"/>
      </g>
     </g>
    </g>
    <g id="xtick_3">
     <g id="line2d_3">
      <g>
       <use style="stroke:#000000;stroke-width:0.8;" x="196.238295" xlink:href="#maaa14e6ced" y="273.312"/>
      </g>
     </g>
     <g id="text_3">
      <!-- 0.4 -->
      <g transform="translate(188.286733 287.910437)scale(0.1 -0.1)">
       <defs>
        <path d="M 2419 4116 
L 825 1625 
L 2419 1625 
L 2419 4116 
z
M 2253 4666 
L 3047 4666 
L 3047 1625 
L 3713 1625 
L 3713 1100 
L 3047 1100 
L 3047 0 
L 2419 0 
L 2419 1100 
L 313 1100 
L 313 1709 
L 2253 4666 
z
" id="DejaVuSans-34" transform="scale(0.015625)"/>
       </defs>
       <use xlink:href="#DejaVuSans-30"/>
       <use x="63.623047" xlink:href="#DejaVuSans-2e"/>
       <use x="95.410156" xlink:href="#DejaVuSans-34"/>
      </g>
     </g>
    </g>
    <g id="xtick_4">
     <g id="line2d_4">
      <g>
       <use style="stroke:#000000;stroke-width:0.8;" x="261.169205" xlink:href="#maaa14e6ced" y="273.312"/>
      </g>
     </g>
     <g id="text_4">
      <!-- 0.6 -->
      <g transform="translate(253.217642 287.910437)scale(0.1 -0.1)">
       <defs>
        <path d="M 2113 2584 
Q 1688 2584 1439 2293 
Q 1191 2003 1191 1497 
Q 1191 994 1439 701 
Q 1688 409 2113 409 
Q 2538 409 2786 701 
Q 3034 994 3034 1497 
Q 3034 2003 2786 2293 
Q 2538 2584 2113 2584 
z
M 3366 4563 
L 3366 3988 
Q 3128 4100 2886 4159 
Q 2644 4219 2406 4219 
Q 1781 4219 1451 3797 
Q 1122 3375 1075 2522 
Q 1259 2794 1537 2939 
Q 1816 3084 2150 3084 
Q 2853 3084 3261 2657 
Q 3669 2231 3669 1497 
Q 3669 778 3244 343 
Q 2819 -91 2113 -91 
Q 1303 -91 875 529 
Q 447 1150 447 2328 
Q 447 3434 972 4092 
Q 1497 4750 2381 4750 
Q 2619 4750 2861 4703 
Q 3103 4656 3366 4563 
z
" id="DejaVuSans-36" transform="scale(0.015625)"/>
       </defs>
       <use xlink:href="#DejaVuSans-30"/>
       <use x="63.623047" xlink:href="#DejaVuSans-2e"/>
       <use x="95.410156" xlink:href="#DejaVuSans-36"/>
      </g>
     </g>
    </g>
    <g id="xtick_5">
     <g id="line2d_5">
      <g>
       <use style="stroke:#000000;stroke-width:0.8;" x="326.100114" xlink:href="#maaa14e6ced" y="273.312"/>
      </g>
     </g>
     <g id="text_5">
      <!-- 0.8 -->
      <g transform="translate(318.148551 287.910437)scale(0.1 -0.1)">
       <defs>
        <path d="M 2034 2216 
Q 1584 2216 1326 1975 
Q 1069 1734 1069 1313 
Q 1069 891 1326 650 
Q 1584 409 2034 409 
Q 2484 409 2743 651 
Q 3003 894 3003 1313 
Q 3003 1734 2745 1975 
Q 2488 2216 2034 2216 
z
M 1403 2484 
Q 997 2584 770 2862 
Q 544 3141 544 3541 
Q 544 4100 942 4425 
Q 1341 4750 2034 4750 
Q 2731 4750 3128 4425 
Q 3525 4100 3525 3541 
Q 3525 3141 3298 2862 
Q 3072 2584 2669 2484 
Q 3125 2378 3379 2068 
Q 3634 1759 3634 1313 
Q 3634 634 3220 271 
Q 2806 -91 2034 -91 
Q 1263 -91 848 271 
Q 434 634 434 1313 
Q 434 1759 690 2068 
Q 947 2378 1403 2484 
z
M 1172 3481 
Q 1172 3119 1398 2916 
Q 1625 2713 2034 2713 
Q 2441 2713 2670 2916 
Q 2900 3119 2900 3481 
Q 2900 3844 2670 4047 
Q 2441 4250 2034 4250 
Q 1625 4250 1398 4047 
Q 1172 3844 1172 3481 
z
" id="DejaVuSans-38" transform="scale(0.015625)"/>
       </defs>
       <use xlink:href="#DejaVuSans-30"/>
       <use x="63.623047" xlink:href="#DejaVuSans-2e"/>
       <use x="95.410156" xlink:href="#DejaVuSans-38"/>
      </g>
     </g>
    </g>
    <g id="xtick_6">
     <g id="line2d_6">
      <g>
       <use style="stroke:#000000;stroke-width:0.8;" x="391.031023" xlink:href="#maaa14e6ced" y="273.312"/>
      </g>
     </g>
     <g id="text_6">
      <!-- 1.0 -->
      <g transform="translate(383.07946 287.910437)scale(0.1 -0.1)">
       <defs>
        <path d="M 794 531 
L 1825 531 
L 1825 4091 
L 703 3866 
L 703 4441 
L 1819 4666 
L 2450 4666 
L 2450 531 
L 3481 531 
L 3481 0 
L 794 0 
L 794 531 
z
" id="DejaVuSans-31" transform="scale(0.015625)"/>
       </defs>
       <use xlink:href="#DejaVuSans-31"/>
       <use x="63.623047" xlink:href="#DejaVuSans-2e"/>
       <use x="95.410156" xlink:href="#DejaVuSans-30"/>
      </g>
     </g>
    </g>
    <g id="text_7">
     <!-- Propagation direction -->
     <g transform="translate(175.221719 301.588562)scale(0.1 -0.1)">
      <defs>
       <path d="M 1259 4147 
L 1259 2394 
L 2053 2394 
Q 2494 2394 2734 2622 
Q 2975 2850 2975 3272 
Q 2975 3691 2734 3919 
Q 2494 4147 2053 4147 
L 1259 4147 
z
M 628 4666 
L 2053 4666 
Q 2838 4666 3239 4311 
Q 3641 3956 3641 3272 
Q 3641 2581 3239 2228 
Q 2838 1875 2053 1875 
L 1259 1875 
L 1259 0 
L 628 0 
L 628 4666 
z
" id="DejaVuSans-50" transform="scale(0.015625)"/>
       <path d="M 2631 2963 
Q 2534 3019 2420 3045 
Q 2306 3072 2169 3072 
Q 1681 3072 1420 2755 
Q 1159 2438 1159 1844 
L 1159 0 
L 581 0 
L 581 3500 
L 1159 3500 
L 1159 2956 
Q 1341 3275 1631 3429 
Q 1922 3584 2338 3584 
Q 2397 3584 2469 3576 
Q 2541 3569 2628 3553 
L 2631 2963 
z
" id="DejaVuSans-72" transform="scale(0.015625)"/>
       <path d="M 1959 3097 
Q 1497 3097 1228 2736 
Q 959 2375 959 1747 
Q 959 1119 1226 758 
Q 1494 397 1959 397 
Q 2419 397 2687 759 
Q 2956 1122 2956 1747 
Q 2956 2369 2687 2733 
Q 2419 3097 1959 3097 
z
M 1959 3584 
Q 2709 3584 3137 3096 
Q 3566 2609 3566 1747 
Q 3566 888 3137 398 
Q 2709 -91 1959 -91 
Q 1206 -91 779 398 
Q 353 888 353 1747 
Q 353 2609 779 3096 
Q 1206 3584 1959 3584 
z
" id="DejaVuSans-6f" transform="scale(0.015625)"/>
       <path d="M 1159 525 
L 1159 -1331 
L 581 -1331 
L 581 3500 
L 1159 3500 
L 1159 2969 
Q 1341 3281 1617 3432 
Q 1894 3584 2278 3584 
Q 2916 3584 3314 3078 
Q 3713 2572 3713 1747 
Q 3713 922 3314 415 
Q 2916 -91 2278 -91 
Q 1894 -91 1617 61 
Q 1341 213 1159 525 
z
M 3116 1747 
Q 3116 2381 2855 2742 
Q 2594 3103 2138 3103 
Q 1681 3103 1420 2742 
Q 1159 2381 1159 1747 
Q 1159 1113 1420 752 
Q 1681 391 2138 391 
Q 2594 391 2855 752 
Q 3116 1113 3116 1747 
z
" id="DejaVuSans-70" transform="scale(0.015625)"/>
       <path d="M 2194 1759 
Q 1497 1759 1228 1600 
Q 959 1441 959 1056 
Q 959 750 1161 570 
Q 1363 391 1709 391 
Q 2188 391 2477 730 
Q 2766 1069 2766 1631 
L 2766 1759 
L 2194 1759 
z
M 3341 1997 
L 3341 0 
L 2766 0 
L 2766 531 
Q 2569 213 2275 61 
Q 1981 -91 1556 -91 
Q 1019 -91 701 211 
Q 384 513 384 1019 
Q 384 1609 779 1909 
Q 1175 2209 1959 2209 
L 2766 2209 
L 2766 2266 
Q 2766 2663 2505 2880 
Q 2244 3097 1772 3097 
Q 1472 3097 1187 3025 
Q 903 2953 641 2809 
L 641 3341 
Q 956 3463 1253 3523 
Q 1550 3584 1831 3584 
Q 2591 3584 2966 3190 
Q 3341 2797 3341 1997 
z
" id="DejaVuSans-61" transform="scale(0.015625)"/>
       <path d="M 2906 1791 
Q 2906 2416 2648 2759 
Q 2391 3103 1925 3103 
Q 1463 3103 1205 2759 
Q 947 2416 947 1791 
Q 947 1169 1205 825 
Q 1463 481 1925 481 
Q 2391 481 2648 825 
Q 2906 1169 2906 1791 
z
M 3481 434 
Q 3481 -459 3084 -895 
Q 2688 -1331 1869 -1331 
Q 1566 -1331 1297 -1286 
Q 1028 -1241 775 -1147 
L 775 -588 
Q 1028 -725 1275 -790 
Q 1522 -856 1778 -856 
Q 2344 -856 2625 -561 
Q 2906 -266 2906 331 
L 2906 616 
Q 2728 306 2450 153 
Q 2172 0 1784 0 
Q 1141 0 747 490 
Q 353 981 353 1791 
Q 353 2603 747 3093 
Q 1141 3584 1784 3584 
Q 2172 3584 2450 3431 
Q 2728 3278 2906 2969 
L 2906 3500 
L 3481 3500 
L 3481 434 
z
" id="DejaVuSans-67" transform="scale(0.015625)"/>
       <path d="M 1172 4494 
L 1172 3500 
L 2356 3500 
L 2356 3053 
L 1172 3053 
L 1172 1153 
Q 1172 725 1289 603 
Q 1406 481 1766 481 
L 2356 481 
L 2356 0 
L 1766 0 
Q 1100 0 847 248 
Q 594 497 594 1153 
L 594 3053 
L 172 3053 
L 172 3500 
L 594 3500 
L 594 4494 
L 1172 4494 
z
" id="DejaVuSans-74" transform="scale(0.015625)"/>
       <path d="M 603 3500 
L 1178 3500 
L 1178 0 
L 603 0 
L 603 3500 
z
M 603 4863 
L 1178 4863 
L 1178 4134 
L 603 4134 
L 603 4863 
z
" id="DejaVuSans-69" transform="scale(0.015625)"/>
       <path d="M 3513 2113 
L 3513 0 
L 2938 0 
L 2938 2094 
Q 2938 2591 2744 2837 
Q 2550 3084 2163 3084 
Q 1697 3084 1428 2787 
Q 1159 2491 1159 1978 
L 1159 0 
L 581 0 
L 581 3500 
L 1159 3500 
L 1159 2956 
Q 1366 3272 1645 3428 
Q 1925 3584 2291 3584 
Q 2894 3584 3203 3211 
Q 3513 2838 3513 2113 
z
" id="DejaVuSans-6e" transform="scale(0.015625)"/>
       <path id="DejaVuSans-20" transform="scale(0.015625)"/>
       <path d="M 2906 2969 
L 2906 4863 
L 3481 4863 
L 3481 0 
L 2906 0 
L 2906 525 
Q 2725 213 2448 61 
Q 2172 -91 1784 -91 
Q 1150 -91 751 415 
Q 353 922 353 1747 
Q 353 2572 751 3078 
Q 1150 3584 1784 3584 
Q 2172 3584 2448 3432 
Q 2725 3281 2906 2969 
z
M 947 1747 
Q 947 1113 1208 752 
Q 1469 391 1925 391 
Q 2381 391 2643 752 
Q 2906 1113 2906 1747 
Q 2906 2381 2643 2742 
Q 2381 3103 1925 3103 
Q 1469 3103 1208 2742 
Q 947 2381 947 1747 
z
" id="DejaVuSans-64" transform="scale(0.015625)"/>
       <path d="M 3597 1894 
L 3597 1613 
L 953 1613 
Q 991 1019 1311 708 
Q 1631 397 2203 397 
Q 2534 397 2845 478 
Q 3156 559 3463 722 
L 3463 178 
Q 3153 47 2828 -22 
Q 2503 -91 2169 -91 
Q 1331 -91 842 396 
Q 353 884 353 1716 
Q 353 2575 817 3079 
Q 1281 3584 2069 3584 
Q 2775 3584 3186 3129 
Q 3597 2675 3597 1894 
z
M 3022 2063 
Q 3016 2534 2758 2815 
Q 2500 3097 2075 3097 
Q 1594 3097 1305 2825 
Q 1016 2553 972 2059 
L 3022 2063 
z
" id="DejaVuSans-65" transform="scale(0.015625)"/>
       <path d="M 3122 3366 
L 3122 2828 
Q 2878 2963 2633 3030 
Q 2388 3097 2138 3097 
Q 1578 3097 1268 2742 
Q 959 2388 959 1747 
Q 959 1106 1268 751 
Q 1578 397 2138 397 
Q 2388 397 2633 464 
Q 2878 531 3122 666 
L 3122 134 
Q 2881 22 2623 -34 
Q 2366 -91 2075 -91 
Q 1284 -91 818 406 
Q 353 903 353 1747 
Q 353 2603 823 3093 
Q 1294 3584 2113 3584 
Q 2378 3584 2631 3529 
Q 2884 3475 3122 3366 
z
" id="DejaVuSans-63" transform="scale(0.015625)"/>
      </defs>
      <use xlink:href="#DejaVuSans-50"/>
      <use x="58.552734" xlink:href="#DejaVuSans-72"/>
      <use x="97.416016" xlink:href="#DejaVuSans-6f"/>
      <use x="158.597656" xlink:href="#DejaVuSans-70"/>
      <use x="222.074219" xlink:href="#DejaVuSans-61"/>
      <use x="283.353516" xlink:href="#DejaVuSans-67"/>
      <use x="346.830078" xlink:href="#DejaVuSans-61"/>
      <use x="408.109375" xlink:href="#DejaVuSans-74"/>
      <use x="447.318359" xlink:href="#DejaVuSans-69"/>
      <use x="475.101562" xlink:href="#DejaVuSans-6f"/>
      <use x="536.283203" xlink:href="#DejaVuSans-6e"/>
      <use x="599.662109" xlink:href="#DejaVuSans-20"/>
      <use x="631.449219" xlink:href="#DejaVuSans-64"/>
      <use x="694.925781" xlink:href="#DejaVuSans-69"/>
      <use x="722.708984" xlink:href="#DejaVuSans-72"/>
      <use x="761.572266" xlink:href="#DejaVuSans-65"/>
      <use x="823.095703" xlink:href="#DejaVuSans-63"/>
      <use x="878.076172" xlink:href="#DejaVuSans-74"/>
      <use x="917.285156" xlink:href="#DejaVuSans-69"/>
      <use x="945.068359" xlink:href="#DejaVuSans-6f"/>
      <use x="1006.25" xlink:href="#DejaVuSans-6e"/>
     </g>
    </g>
   </g>
   <g id="matplotlib.axis_2">
    <g id="ytick_1">
     <g id="line2d_7">
      <defs>
       <path d="M 0 0 
L -3.5 0 
" id="m0ea63c3b0b" style="stroke:#000000;stroke-width:0.8;"/>
      </defs>
      <g>
       <use style="stroke:#000000;stroke-width:0.8;" x="50.14375" xlink:href="#m0ea63c3b0b" y="273.312"/>
      </g>
     </g>
     <g id="text_8">
      <!-- 0.00 -->
      <g transform="translate(20.878125 277.111219)scale(0.1 -0.1)">
       <use xlink:href="#DejaVuSans-30"/>
       <use x="63.623047" xlink:href="#DejaVuSans-2e"/>
       <use x="95.410156" xlink:href="#DejaVuSans-30"/>
       <use x="159.033203" xlink:href="#DejaVuSans-30"/>
      </g>
     </g>
    </g>
    <g id="ytick_2">
     <g id="line2d_8">
      <g>
       <use style="stroke:#000000;stroke-width:0.8;" x="50.14375" xlink:href="#m0ea63c3b0b" y="242.337836"/>
      </g>
     </g>
     <g id="text_9">
      <!-- 0.25 -->
      <g transform="translate(20.878125 246.137055)scale(0.1 -0.1)">
       <defs>
        <path d="M 691 4666 
L 3169 4666 
L 3169 4134 
L 1269 4134 
L 1269 2991 
Q 1406 3038 1543 3061 
Q 1681 3084 1819 3084 
Q 2600 3084 3056 2656 
Q 3513 2228 3513 1497 
Q 3513 744 3044 326 
Q 2575 -91 1722 -91 
Q 1428 -91 1123 -41 
Q 819 9 494 109 
L 494 744 
Q 775 591 1075 516 
Q 1375 441 1709 441 
Q 2250 441 2565 725 
Q 2881 1009 2881 1497 
Q 2881 1984 2565 2268 
Q 2250 2553 1709 2553 
Q 1456 2553 1204 2497 
Q 953 2441 691 2322 
L 691 4666 
z
" id="DejaVuSans-35" transform="scale(0.015625)"/>
       </defs>
       <use xlink:href="#DejaVuSans-30"/>
       <use x="63.623047" xlink:href="#DejaVuSans-2e"/>
       <use x="95.410156" xlink:href="#DejaVuSans-32"/>
       <use x="159.033203" xlink:href="#DejaVuSans-35"/>
      </g>
     </g>
    </g>
    <g id="ytick_3">
     <g id="line2d_9">
      <g>
       <use style="stroke:#000000;stroke-width:0.8;" x="50.14375" xlink:href="#m0ea63c3b0b" y="211.363673"/>
      </g>
     </g>
     <g id="text_10">
      <!-- 0.50 -->
      <g transform="translate(20.878125 215.162892)scale(0.1 -0.1)">
       <use xlink:href="#DejaVuSans-30"/>
       <use x="63.623047" xlink:href="#DejaVuSans-2e"/>
       <use x="95.410156" xlink:href="#DejaVuSans-35"/>
       <use x="159.033203" xlink:href="#DejaVuSans-30"/>
      </g>
     </g>
    </g>
    <g id="ytick_4">
     <g id="line2d_10">
      <g>
       <use style="stroke:#000000;stroke-width:0.8;" x="50.14375" xlink:href="#m0ea63c3b0b" y="180.389509"/>
      </g>
     </g>
     <g id="text_11">
      <!-- 0.75 -->
      <g transform="translate(20.878125 184.188728)scale(0.1 -0.1)">
       <defs>
        <path d="M 525 4666 
L 3525 4666 
L 3525 4397 
L 1831 0 
L 1172 0 
L 2766 4134 
L 525 4134 
L 525 4666 
z
" id="DejaVuSans-37" transform="scale(0.015625)"/>
       </defs>
       <use xlink:href="#DejaVuSans-30"/>
       <use x="63.623047" xlink:href="#DejaVuSans-2e"/>
       <use x="95.410156" xlink:href="#DejaVuSans-37"/>
       <use x="159.033203" xlink:href="#DejaVuSans-35"/>
      </g>
     </g>
    </g>
    <g id="ytick_5">
     <g id="line2d_11">
      <g>
       <use style="stroke:#000000;stroke-width:0.8;" x="50.14375" xlink:href="#m0ea63c3b0b" y="149.415346"/>
      </g>
     </g>
     <g id="text_12">
      <!-- 1.00 -->
      <g transform="translate(20.878125 153.214564)scale(0.1 -0.1)">
       <use xlink:href="#DejaVuSans-31"/>
       <use x="63.623047" xlink:href="#DejaVuSans-2e"/>
       <use x="95.410156" xlink:href="#DejaVuSans-30"/>
       <use x="159.033203" xlink:href="#DejaVuSans-30"/>
      </g>
     </g>
    </g>
    <g id="ytick_6">
     <g id="line2d_12">
      <g>
       <use style="stroke:#000000;stroke-width:0.8;" x="50.14375" xlink:href="#m0ea63c3b0b" y="118.441182"/>
      </g>
     </g>
     <g id="text_13">
      <!-- 1.25 -->
      <g transform="translate(20.878125 122.240401)scale(0.1 -0.1)">
       <use xlink:href="#DejaVuSans-31"/>
       <use x="63.623047" xlink:href="#DejaVuSans-2e"/>
       <use x="95.410156" xlink:href="#DejaVuSans-32"/>
       <use x="159.033203" xlink:href="#DejaVuSans-35"/>
      </g>
     </g>
    </g>
    <g id="ytick_7">
     <g id="line2d_13">
      <g>
       <use style="stroke:#000000;stroke-width:0.8;" x="50.14375" xlink:href="#m0ea63c3b0b" y="87.467019"/>
      </g>
     </g>
     <g id="text_14">
      <!-- 1.50 -->
      <g transform="translate(20.878125 91.266237)scale(0.1 -0.1)">
       <use xlink:href="#DejaVuSans-31"/>
       <use x="63.623047" xlink:href="#DejaVuSans-2e"/>
       <use x="95.410156" xlink:href="#DejaVuSans-35"/>
       <use x="159.033203" xlink:href="#DejaVuSans-30"/>
      </g>
     </g>
    </g>
    <g id="ytick_8">
     <g id="line2d_14">
      <g>
       <use style="stroke:#000000;stroke-width:0.8;" x="50.14375" xlink:href="#m0ea63c3b0b" y="56.492855"/>
      </g>
     </g>
     <g id="text_15">
      <!-- 1.75 -->
      <g transform="translate(20.878125 60.292074)scale(0.1 -0.1)">
       <use xlink:href="#DejaVuSans-31"/>
       <use x="63.623047" xlink:href="#DejaVuSans-2e"/>
       <use x="95.410156" xlink:href="#DejaVuSans-37"/>
       <use x="159.033203" xlink:href="#DejaVuSans-35"/>
      </g>
     </g>
    </g>
    <g id="ytick_9">
     <g id="line2d_15">
      <g>
       <use style="stroke:#000000;stroke-width:0.8;" x="50.14375" xlink:href="#m0ea63c3b0b" y="25.518691"/>
      </g>
     </g>
     <g id="text_16">
      <!-- 2.00 -->
      <g transform="translate(20.878125 29.31791)scale(0.1 -0.1)">
       <use xlink:href="#DejaVuSans-32"/>
       <use x="63.623047" xlink:href="#DejaVuSans-2e"/>
       <use x="95.410156" xlink:href="#DejaVuSans-30"/>
       <use x="159.033203" xlink:href="#DejaVuSans-30"/>
      </g>
     </g>
    </g>
    <g id="text_17">
     <!-- Probability density -->
     <g transform="translate(14.798438 186.606781)rotate(-90)scale(0.1 -0.1)">
      <defs>
       <path d="M 3116 1747 
Q 3116 2381 2855 2742 
Q 2594 3103 2138 3103 
Q 1681 3103 1420 2742 
Q 1159 2381 1159 1747 
Q 1159 1113 1420 752 
Q 1681 391 2138 391 
Q 2594 391 2855 752 
Q 3116 1113 3116 1747 
z
M 1159 2969 
Q 1341 3281 1617 3432 
Q 1894 3584 2278 3584 
Q 2916 3584 3314 3078 
Q 3713 2572 3713 1747 
Q 3713 922 3314 415 
Q 2916 -91 2278 -91 
Q 1894 -91 1617 61 
Q 1341 213 1159 525 
L 1159 0 
L 581 0 
L 581 4863 
L 1159 4863 
L 1159 2969 
z
" id="DejaVuSans-62" transform="scale(0.015625)"/>
       <path d="M 603 4863 
L 1178 4863 
L 1178 0 
L 603 0 
L 603 4863 
z
" id="DejaVuSans-6c" transform="scale(0.015625)"/>
       <path d="M 2059 -325 
Q 1816 -950 1584 -1140 
Q 1353 -1331 966 -1331 
L 506 -1331 
L 506 -850 
L 844 -850 
Q 1081 -850 1212 -737 
Q 1344 -625 1503 -206 
L 1606 56 
L 191 3500 
L 800 3500 
L 1894 763 
L 2988 3500 
L 3597 3500 
L 2059 -325 
z
" id="DejaVuSans-79" transform="scale(0.015625)"/>
       <path d="M 2834 3397 
L 2834 2853 
Q 2591 2978 2328 3040 
Q 2066 3103 1784 3103 
Q 1356 3103 1142 2972 
Q 928 2841 928 2578 
Q 928 2378 1081 2264 
Q 1234 2150 1697 2047 
L 1894 2003 
Q 2506 1872 2764 1633 
Q 3022 1394 3022 966 
Q 3022 478 2636 193 
Q 2250 -91 1575 -91 
Q 1294 -91 989 -36 
Q 684 19 347 128 
L 347 722 
Q 666 556 975 473 
Q 1284 391 1588 391 
Q 1994 391 2212 530 
Q 2431 669 2431 922 
Q 2431 1156 2273 1281 
Q 2116 1406 1581 1522 
L 1381 1569 
Q 847 1681 609 1914 
Q 372 2147 372 2553 
Q 372 3047 722 3315 
Q 1072 3584 1716 3584 
Q 2034 3584 2315 3537 
Q 2597 3491 2834 3397 
z
" id="DejaVuSans-73" transform="scale(0.015625)"/>
      </defs>
      <use xlink:href="#DejaVuSans-50"/>
      <use x="58.552734" xlink:href="#DejaVuSans-72"/>
      <use x="97.416016" xlink:href="#DejaVuSans-6f"/>
      <use x="158.597656" xlink:href="#DejaVuSans-62"/>
      <use x="222.074219" xlink:href="#DejaVuSans-61"/>
      <use x="283.353516" xlink:href="#DejaVuSans-62"/>
      <use x="346.830078" xlink:href="#DejaVuSans-69"/>
      <use x="374.613281" xlink:href="#DejaVuSans-6c"/>
      <use x="402.396484" xlink:href="#DejaVuSans-69"/>
      <use x="430.179688" xlink:href="#DejaVuSans-74"/>
      <use x="469.388672" xlink:href="#DejaVuSans-79"/>
      <use x="528.568359" xlink:href="#DejaVuSans-20"/>
      <use x="560.355469" xlink:href="#DejaVuSans-64"/>
      <use x="623.832031" xlink:href="#DejaVuSans-65"/>
      <use x="685.355469" xlink:href="#DejaVuSans-6e"/>
      <use x="748.734375" xlink:href="#DejaVuSans-73"/>
      <use x="800.833984" xlink:href="#DejaVuSans-69"/>
      <use x="828.617188" xlink:href="#DejaVuSans-74"/>
      <use x="867.826172" xlink:href="#DejaVuSans-79"/>
     </g>
    </g>
   </g>
   <g id="line2d_16">
    <path clip-path="url(#p2f33fc3f01)" d="M 66.376477 273.312 
L 391.031023 25.518691 
L 391.031023 25.518691 
" style="fill:none;stroke:#ff7f0e;stroke-linecap:square;stroke-width:1.5;"/>
   </g>
   <g id="patch_203">
    <path d="M 50.14375 273.312 
L 50.14375 7.2 
" style="fill:none;stroke:#000000;stroke-linecap:square;stroke-linejoin:miter;stroke-width:0.8;"/>
   </g>
   <g id="patch_204">
    <path d="M 407.26375 273.312 
L 407.26375 7.2 
" style="fill:none;stroke:#000000;stroke-linecap:square;stroke-linejoin:miter;stroke-width:0.8;"/>
   </g>
   <g id="patch_205">
    <path d="M 50.14375 273.312 
L 407.26375 273.312 
" style="fill:none;stroke:#000000;stroke-linecap:square;stroke-linejoin:miter;stroke-width:0.8;"/>
   </g>
   <g id="patch_206">
    <path d="M 50.14375 7.2 
L 407.26375 7.2 
" style="fill:none;stroke:#000000;stroke-linecap:square;stroke-linejoin:miter;stroke-width:0.8;"/>
   </g>
  </g>
 </g>
 <defs>
  <clipPath id="p2f33fc3f01">
   <rect height="266.112" width="357.12" x="50.14375" y="7.2"/>
  </clipPath>
 </defs>
</svg>
